<svg xmlns="http://www.w3.org/2000/svg" width="18" height="18" viewBox="0 0 18 18">
    <g fill="#4A4A4A" fill-rule="evenodd">
        <path fill-rule="nonzero" d="M16.45 0H1.55C.694 0 0 .695 0 1.55v14.9C0 17.306.695 18 1.55 18h14.9c.855 0 1.55-.695 1.55-1.55V1.55C18 .694 17.305 0 16.45 0zM1.55 1.328h14.9c.123 0 .222.1.222.221v2.178H1.328V1.55c0-.122.1-.221.221-.221zm14.9 15.344H1.55a.222.222 0 0 1-.222-.221V5.055h15.344v11.396c0 .122-.1.221-.221.221z"/>
        <path d="M11.766 10.254H9.664V8.152a.664.664 0 1 0-1.328 0v2.102H6.234a.664.664 0 1 0 0 1.328h2.102v2.102a.664.664 0 1 0 1.328 0v-2.102h2.102a.664.664 0 1 0 0-1.328z"/>
    </g>
</svg>
