<svg xmlns="http://www.w3.org/2000/svg" xmlns:xlink="http://www.w3.org/1999/xlink" width="28" height="28" viewBox="0 0 28 28">
    <defs>
        <path id="a" d="M4.083 8.764h19.834V6.417a.583.583 0 0 0-.584-.584h-2.916V7a.583.583 0 0 1-1.167 0V5.833H8.73V7a.583.583 0 0 1-1.166 0V5.833H4.667a.583.583 0 0 0-.584.584v2.347zm0 1.167v13.402c0 .322.262.584.584.584h18.666a.583.583 0 0 0 .584-.584V9.931H4.083zm4.648-5.264H19.25V3.5a.583.583 0 1 1 1.167 0v1.167h2.916c.967 0 1.75.783 1.75 1.75v16.916a1.75 1.75 0 0 1-1.75 1.75H4.667a1.75 1.75 0 0 1-1.75-1.75V6.417c0-.967.783-1.75 1.75-1.75h2.897V3.5a.583.583 0 0 1 1.167 0v1.167zm10.519 8.75v1.166h1.167v-1.166H19.25zm-.583-1.167H21c.322 0 .583.261.583.583v2.334a.583.583 0 0 1-.583.583h-2.333a.583.583 0 0 1-.584-.583v-2.334c0-.322.262-.583.584-.583zm.583 7v1.167h1.167V19.25H19.25zm-.583-1.167H21c.322 0 .583.262.583.584V21a.583.583 0 0 1-.583.583h-2.333a.583.583 0 0 1-.584-.583v-2.333c0-.322.262-.584.584-.584zm-5.25-4.666v1.166h1.166v-1.166h-1.166zm-.584-1.167h2.334c.322 0 .583.261.583.583v2.334a.583.583 0 0 1-.583.583h-2.334a.583.583 0 0 1-.583-.583v-2.334c0-.322.261-.583.583-.583zm.584 7v1.167h1.166V19.25h-1.166zm-.584-1.167h2.334c.322 0 .583.262.583.584V21a.583.583 0 0 1-.583.583h-2.334A.583.583 0 0 1 12.25 21v-2.333c0-.322.261-.584.583-.584zm-5.269-3.5h1.167v-1.166H7.564v1.166zm-.583-2.333h2.333c.322 0 .583.261.583.583v2.334a.583.583 0 0 1-.583.583H6.981a.583.583 0 0 1-.584-.583v-2.334c0-.322.262-.583.584-.583zm.583 8.167h1.167V19.25H7.564v1.167zm-.583-2.334h2.333c.322 0 .583.262.583.584V21a.583.583 0 0 1-.583.583H6.981A.583.583 0 0 1 6.397 21v-2.333c0-.322.262-.584.584-.584z"/>
    </defs>
    <g fill="none" fill-rule="evenodd">
        <mask id="b" fill="#fff">
            <use xlink:href="#a"/>
        </mask>
        <use fill="#284664" fill-rule="nonzero" xlink:href="#a"/>
        <g fill="#284664" mask="url(#b)">
            <path d="M-7-6h40v40H-7z"/>
        </g>
    </g>
</svg>
