<?xml version="1.0" encoding="UTF-8"?>
<svg width="18px" height="18px" viewBox="0 0 18 18" version="1.1" xmlns="http://www.w3.org/2000/svg" xmlns:xlink="http://www.w3.org/1999/xlink">
    <!-- Generator: Sketch 53 (72520) - https://sketchapp.com -->
    <title>share</title>
    <desc>Created with Sketch.</desc>
    <g id="share" stroke="none" stroke-width="1" fill="none" fill-rule="evenodd">
        <g id="ShareURLIcn" transform="translate(-1.000000, -1.000000)" fill="#FFFFFF" fill-rule="nonzero">
            <g id="Vector" transform="translate(0.397250, 0.397250)">
                <path d="M15.6363636,6.08912656 C14.1517907,6.08912656 12.9483066,4.88564243 12.9483066,3.40106952 C12.9483066,1.91649661 14.1517907,0.713012478 15.6363636,0.713012478 C17.1209365,0.713012478 18.3244207,1.91649661 18.3244207,3.40106952 C18.3244207,4.88564243 17.1209365,6.08912656 15.6363636,6.08912656 Z M15.6363636,5.16221034 C16.6090149,5.16221034 17.3975045,4.37372074 17.3975045,3.40106952 C17.3975045,2.4284183 16.6090149,1.6399287 15.6363636,1.6399287 C14.6637124,1.6399287 13.8752228,2.4284183 13.8752228,3.40106952 C13.8752228,4.37372074 14.6637124,5.16221034 15.6363636,5.16221034 Z" id="Oval"></path>
                <path d="M15.6363636,18.3244207 C14.1517907,18.3244207 12.9483066,17.1209365 12.9483066,15.6363636 C12.9483066,14.1517907 14.1517907,12.9483066 15.6363636,12.9483066 C17.1209365,12.9483066 18.3244207,14.1517907 18.3244207,15.6363636 C18.3244207,17.1209365 17.1209365,18.3244207 15.6363636,18.3244207 Z M15.6363636,17.3975045 C16.6090149,17.3975045 17.3975045,16.6090149 17.3975045,15.6363636 C17.3975045,14.6637124 16.6090149,13.8752228 15.6363636,13.8752228 C14.6637124,13.8752228 13.8752228,14.6637124 13.8752228,15.6363636 C13.8752228,16.6090149 14.6637124,17.3975045 15.6363636,17.3975045 Z" id="Oval"></path>
                <path d="M3.40106952,12.2067736 C1.91649661,12.2067736 0.713012478,11.0032895 0.713012478,9.51871658 C0.713012478,8.03414367 1.91649661,6.83065954 3.40106952,6.83065954 C4.88564243,6.83065954 6.08912656,8.03414367 6.08912656,9.51871658 C6.08912656,11.0032895 4.88564243,12.2067736 3.40106952,12.2067736 Z M3.40106952,11.2798574 C4.37372074,11.2798574 5.16221034,10.4913678 5.16221034,9.51871658 C5.16221034,8.54606536 4.37372074,7.75757576 3.40106952,7.75757576 C2.4284183,7.75757576 1.6399287,8.54606536 1.6399287,9.51871658 C1.6399287,10.4913678 2.4284183,11.2798574 3.40106952,11.2798574 Z" id="Oval"></path>
                <path d="M13.2044999,4.09883945 C13.4334383,3.98437028 13.7118251,4.07716587 13.8262942,4.30610422 C13.9407634,4.53504256 13.8479678,4.81342935 13.6190295,4.92789852 L5.83293322,8.82094665 C5.60399488,8.93541582 5.32560808,8.84262022 5.21113891,8.61368188 C5.09666974,8.38474354 5.18946534,8.10635675 5.41840368,7.99188758 L13.2044999,4.09883945 Z" id="Shape"></path>
                <path d="M5.5544428,11.0440328 C5.32633993,10.9279077 5.23556401,10.6488558 5.35168911,10.420753 C5.4678142,10.1926501 5.7468661,10.1018742 5.97496897,10.2179993 L13.6220278,14.1110474 C13.8501307,14.2271725 13.9409066,14.5062244 13.8247815,14.7343273 C13.7086564,14.9624301 13.4296045,15.053206 13.2015016,14.9370809 L5.5544428,11.0440328 Z" id="Shape"></path>
            </g>
        </g>
    </g>
</svg>