<svg xmlns="http://www.w3.org/2000/svg" width="49" height="60" viewBox="0 0 49 60">
    <g fill="none" fill-rule="evenodd">
        <g fill="#32B4C8">
            <path d="M.968 13.548h46.451v-2.903c0-1.07-.866-1.935-1.935-1.935H2.904c-1.07 0-1.936.866-1.936 1.935v2.903zM34.839 56.129H23.226V44.516h11.613z"/>
        </g>
        <path fill="#284664" fill-rule="nonzero" d="M48.387 10.645c0-1.6-1.302-2.903-2.903-2.903H38.71V2.903c0-1.6-1.303-2.903-2.904-2.903H12.581a2.907 2.907 0 0 0-2.904 2.903v4.839H2.903A2.907 2.907 0 0 0 0 10.645v9.503l1.935.387v20.11c0 1.6 1.303 2.903 2.904 2.903h4.838V60H38.71V43.548h4.838c1.601 0 2.904-1.302 2.904-2.903v-20.11l1.935-.387v-9.503zm-12.58-8.71a.97.97 0 0 1 .967.968v4.839H34.84V1.935h.967zm-2.904 5.807h-17.42V5.806h17.42v1.936zm0-5.807v1.936h-17.42V1.935h17.42zm-21.29.968a.97.97 0 0 1 .968-.968h.967v5.807h-1.935V2.903zm25.161 55.162H11.613V38.71h7.742v-7.742h17.42v27.097zm-23.793-21.29l4.438-4.439v4.438h-4.438zm31.535 3.87a.97.97 0 0 1-.968.968H38.71v-12.58H17.986L9.677 37.34v4.272H4.84a.97.97 0 0 1-.968-.968V20.923l15.484 3.096v3.078h9.677v-3.078l15.484-3.096v19.722zM21.29 25.161v-3.87h5.807v3.87H21.29zm25.162-6.6l-17.42 3.484v-2.69h-9.677v2.69l-17.42-3.484v-7.916a.97.97 0 0 1 .968-.968h42.58a.97.97 0 0 1 .969.968v7.916z"/>
        <path fill="#284664" d="M21.29 32.903h13.548v1.935H21.29zM21.29 36.774h13.548v1.935H21.29zM13.548 40.645h21.29v1.935h-21.29zM13.548 44.516h7.742v1.935h-7.742zM13.548 48.387h7.742v1.935h-7.742zM13.548 52.258h7.742v1.935h-7.742z"/>
    </g>
</svg>
