<svg xmlns="http://www.w3.org/2000/svg" xmlns:xlink="http://www.w3.org/1999/xlink" width="80" height="80" viewBox="0 0 80 80">
    <defs>
        <path id="a" d="M0 .156h59.524v40.712H0z"/>
        <path id="c" d="M.01 0h74.618v69.293H.01z"/>
    </defs>
    <g fill="none" fill-rule="evenodd">
        <g transform="translate(20.434 38.202)">
            <mask id="b" fill="#fff">
                <use xlink:href="#a"/>
            </mask>
            <path fill="#ECECEC" d="M33.644 21.867h15.528V11.65H33.644z" mask="url(#b)"/>
            <path fill="#ECECEC" d="M53.054.156v29.373H6.47V1.433L0 .947v34.968h23.423c.601 2.91 3.214 5.108 6.34 5.108 3.124 0 5.738-2.197 6.338-5.108h23.423V.156h-6.47z" mask="url(#b)"/>
        </g>
        <path fill="#ECECEC" d="M31.095 63.967h15.103V53.305H31.095z"/>
        <g>
            <mask id="d" fill="#fff">
                <use xlink:href="#c"/>
            </mask>
            <path fill="#ECECEC" d="M30.88 50.044h15.44v-5.133H30.88z" mask="url(#d)"/>
            <path fill="#D5D5D5" d="M64.097 30.795a3.851 3.851 0 0 0-2.336-2.33v-8.98l-2.996-.622 1.07-.485a3.282 3.282 0 0 0 1.926-2.982 3.282 3.282 0 0 0-1.925-2.982L33.87.642a7.282 7.282 0 0 0-5.981 0L1.926 12.414A3.281 3.281 0 0 0 0 15.396c0 1.282.756 2.452 1.925 2.982l5.795 2.627v15.65l.624.373c.243.145 5.45 3.168 17.39 3.88v28.385h48.894V30.795h-10.53zm-5.683 4.528a3.835 3.835 0 0 0 2.06.605c.76 0 1.463-.227 2.06-.605l1.8 7.18v1.125h-7.72v-1.126l1.8-7.18zm2.06-4.528c.71 0 1.287.576 1.287 1.283a1.286 1.286 0 0 1-2.574 0c0-.707.577-1.283 1.287-1.283zm-57.9-15.4a.71.71 0 0 1 .417-.645L28.955 2.98a4.617 4.617 0 0 1 1.925-.417c.67 0 1.317.14 1.925.416L58.772 14.75a.71.71 0 0 1-.002 1.292l-4.269 1.935-24.645-5.122-.525 2.512 21.205 4.406-17.73 8.039a4.683 4.683 0 0 1-3.85 0L2.988 16.042a.711.711 0 0 1-.416-.646zm7.72 6.777L27.89 30.15c.946.428 1.95.645 2.99.645 1.04 0 2.045-.217 2.991-.645l17.596-7.978v12.967c-1.931.89-8.391 3.356-20.587 3.356-12.2 0-18.661-2.47-20.587-3.356V22.172zm18.013 18.85c.831.024 1.684.04 2.573.04 8.567 0 14.418-1.163 18.014-2.242v27.907H28.307V41.022zm43.747 25.705H51.467V37.934c1.23-.49 1.869-.857 1.95-.906l.624-.373v-15.65l.759-.344 4.387.91v6.894a3.835 3.835 0 0 0-2.546 3.352l-2.56 10.217-.04 4.16h12.867v-3.85l-2.219-8.982h7.365v33.365z" mask="url(#d)"/>
        </g>
        <path fill="#D5D5D5" d="M31.095 51.529h15.103v-2.666H31.095zM31.095 46.198h15.103v-2.665H31.095zM54.194 51.529h15.103v-2.666H54.194zM54.194 55.97h15.103v-2.665H54.194zM54.194 61.301h15.103v-2.665H54.194zM13.326 12.685l14.018-6.466 1.086 2.42-14.018 6.464z"/>
    </g>
</svg>
