<svg xmlns="http://www.w3.org/2000/svg" width="72" height="60" viewBox="0 0 72 60">
    <g fill="none" fill-rule="evenodd">
        <path fill="#D5D5D5" fill-rule="nonzero" d="M35.372 49.628a3.616 3.616 0 0 0 2.54 1.052 3.59 3.59 0 0 0 3.58-3.466 3.585 3.585 0 0 0 3.453-3.453 3.585 3.585 0 0 0 3.453-3.453 3.591 3.591 0 0 0 3.466-3.58c0-.163-.026-.325-.048-.487l1.652-1.652 1.335 2.671 7.936-3.968-1.03-2.06-5.876 2.94-6.979-13.96 6.058-2.375-.84-2.144-6.86 2.69-10.264-3.079a7.255 7.255 0 0 0-2.348-.282v-.025H22.123L16.87 13.25l-.726 2.185 4.27 1.418-6.026 15.064-3.535-1.415-.855 2.138 5.673 2.269 1.424-3.56 2.062 2.064-1.924 1.925a3.616 3.616 0 0 0-1.052 2.54 3.59 3.59 0 0 0 3.465 3.58 3.585 3.585 0 0 0 3.454 3.453 3.585 3.585 0 0 0 3.453 3.454 3.59 3.59 0 0 0 3.58 3.465c.946 0 1.872-.383 2.54-1.052l1.925-1.924.774.773zm.912-32.117l10.169 3.05 5.929 11.86-1.669 1.667-4.731-4.767c.423.04.849.064 1.278.064v-2.302c-2.68 0-5.244-.998-7.22-2.809L37.35 21.81c-1.52-1.395-4.096-1.34-5.555.12l-3.05 3.05a1.292 1.292 0 0 1-1.827-1.826l4.389-4.387a5.04 5.04 0 0 1 4.978-1.255zm-13.569-.212h6.802l-4.226 4.227a3.563 3.563 0 0 0-1.053 2.54 3.596 3.596 0 0 0 3.593 3.592c.946 0 1.872-.383 2.54-1.052l3.05-3.05c.624-.622 1.722-.646 2.372-.05l2.691 2.466c.894.82 1.888 1.502 2.951 2.036l7.75 7.807a1.292 1.292 0 0 1-1.826 1.826l-9.645-9.645-1.628 1.627 9.645 9.645a1.292 1.292 0 0 1-1.826 1.826l-9.644-9.645-1.628 1.628 9.645 9.644a1.292 1.292 0 0 1-1.826 1.826l-9.644-9.645-1.628 1.628 9.645 9.645A1.292 1.292 0 0 1 36.999 48l-1.298-1.3c.023-.16.048-.321.048-.486a3.59 3.59 0 0 0-3.466-3.58 3.585 3.585 0 0 0-3.453-3.453 3.585 3.585 0 0 0-3.453-3.453 3.59 3.59 0 0 0-3.58-3.466c-.164 0-.325.026-.487.048l-3.286-3.286 4.691-11.726zm-4.232 20.58c0-.34.137-.672.377-.913l2.024-2.023a1.292 1.292 0 0 1 1.826 1.826l-2.024 2.023a1.292 1.292 0 0 1-2.203-.913zm3.453 3.454c0-.34.137-.673.377-.914l2.024-2.023a1.292 1.292 0 0 1 1.826 1.826l-2.023 2.023a1.292 1.292 0 0 1-2.203-.913zm3.454 3.453c0-.34.136-.672.377-.913l2.024-2.024a1.292 1.292 0 0 1 1.826 1.826l-2.024 2.024a1.292 1.292 0 0 1-2.203-.913zm7.68 2.342l-2.024 2.024a1.292 1.292 0 0 1-1.826-1.826l2.024-2.024a1.292 1.292 0 0 1 1.826 1.826z"/>
        <path fill="#D5D5D5" d="M13.772 50.31L15.4 48.68l1.628 1.629-1.628 1.627zM18.164 54.204l1.28-1.914 1.912 1.279-1.279 1.914zM23.23 57.17l.882-2.127 2.127.881-.882 2.127zM28.78 59.092l.45-2.257 2.257.45-.45 2.256zM50.14 6.35l1.28-1.913 1.912 1.278-1.28 1.914zM45.257 3.998l.881-2.126 2.127.88-.881 2.128zM40.011 2.642L40.46.384l2.256.448-.448 2.258z"/>
        <path fill="#D5D5D5" d="M57.62 3.486h-2.302V9.24h-5.756v2.302h8.058zM16.18 43.774H9.275v6.906h2.303v-4.604h4.604zM35.75 2.335h1.15V.033h-1.15a29.83 29.83 0 0 0-20.353 7.986l1.566 1.688A27.531 27.531 0 0 1 35.75 2.335zM35.75 57.587h-1.152v2.302h1.151c10.522 0 20.08-5.37 25.567-14.365l-1.965-1.198c-5.066 8.303-13.889 13.26-23.602 13.26z"/>
        <g fill="#ECECEC">
            <path d="M6.417 41.905l-6.35-3.174L0 7.645l18.13 6.025-.92 1.84zM66.402 41.987L52.875 16.163l18.558-7.28v29.751z"/>
        </g>
    </g>
</svg>
