<svg xmlns="http://www.w3.org/2000/svg" width="65" height="65" viewBox="0 0 65 65">
    <g fill="none" fill-rule="evenodd">
        <path fill="#ECECEC" d="M53.468 22.016h8.387v5.242h-8.387z"/>
        <path fill="#D5D5D5" fill-rule="nonzero" d="M36.112 18.871h5.823v4.194h-5.241v2.096h13.629v-8.387H36.112v2.097zm12.114 4.194h-4.194V18.87h4.194v4.194z"/>
        <path fill="#ECECEC" d="M27.258 55.565l-5.242-4.194-5.242 4.194 2.097 2.096-1.034 6.119h8.358L25.16 57.66zM23.35 7.339a14.299 14.299 0 0 0-10.177 4.215l-1.119 1.119a7.589 7.589 0 0 0-5.764 7.35v11.429H7.34a4.194 4.194 0 0 1 4.193-4.194v-4.193s4.194 1.048 10.484 1.048S32.5 23.065 32.5 23.065v4.193a4.194 4.194 0 0 1 4.194 4.194h1.048V21.73c0-7.936-6.456-14.392-14.392-14.392z"/>
        <path fill="#D5D5D5" d="M17.823 28.306a1.048 1.048 0 1 1-2.097 0 1.048 1.048 0 0 1 2.097 0zM28.306 28.306a1.048 1.048 0 1 1-2.096 0 1.048 1.048 0 0 1 2.096 0zM22.016 37.742a2.099 2.099 0 0 1-2.097-2.097h-2.096a4.198 4.198 0 0 0 4.193 4.194 4.198 4.198 0 0 0 4.194-4.194h-2.097c0 1.157-.94 2.097-2.097 2.097z"/>
        <path fill="#D5D5D5" fill-rule="nonzero" d="M62.903 37.742V20.968h-8.387V12.58H52.42V4.194h-2.096V0H35.645v4.194h-2.097v7.394a14.444 14.444 0 0 1 2.333 3.09H52.42v23.064h-4.193V27.258h-8.387v10.484h-7.092a11.4 11.4 0 0 0 .37-1.111c2.597-.31 4.625-2.5 4.625-5.18a5.252 5.252 0 0 0-4.194-5.135v-4.592l-1.3.323c-.042.01-4.163 1.018-10.232 1.018-6.069 0-10.19-1.008-10.23-1.019l-1.302-.322v4.592a5.252 5.252 0 0 0-4.194 5.136c0 2.678 2.028 4.87 4.625 5.179a11.588 11.588 0 0 0 4.81 6.573v2.169L5.02 48.944A7.326 7.326 0 0 0 0 55.904V65h44.032v-9.096a7.326 7.326 0 0 0-5.017-6.961l-10.709-3.57v-1.34h34.597c1.157 0 2.097-.941 2.097-2.098V39.84c0-1.157-.94-2.097-2.097-2.097zM37.742 2.097h10.484v2.097H37.742V2.097zm4.193 10.484H39.84v-2.097h2.096v2.097zm4.194 0h-2.097v-2.097h2.097v2.097zm4.194 0h-2.097V8.387H37.742v4.194h-2.097V6.29h14.678v6.29zM33.548 33.548V28.5a3.14 3.14 0 0 1 2.097 2.953c0 1.38-.9 2.544-2.14 2.966.021-.289.043-.576.043-.87zm-25.16-2.096a3.14 3.14 0 0 1 2.096-2.953v5.05c0 .293.022.58.044.869a3.14 3.14 0 0 1-2.14-2.966zm46.128-8.387h6.29v14.677h-6.29V23.065zm-12.58 6.29h4.193v8.387h-4.194v-8.387zM16.49 47.328l3.973 3.973-4.229 3.523-2.222-6.67 2.478-.826zm1.332-1.633V44.28a11.42 11.42 0 0 0 4.193.8 11.38 11.38 0 0 0 4.194-.808v1.423l-4.194 4.193-4.193-4.193zm20.53 5.237a5.236 5.236 0 0 1 3.582 4.972v7H2.097v-7c0-2.26 1.44-4.258 3.584-4.972l6.342-2.114 3.194 9.584 6.8-5.666 6.798 5.666 3.195-9.584 6.342 2.114zm-8.333-2.777l-2.222 6.67L23.57 51.3l3.972-3.973 2.478.827zm-8.004-5.171c-5.202 0-9.435-4.233-9.435-9.436v-9.195c1.731.321 5.082.808 9.435.808 4.353 0 7.704-.487 9.436-.808v9.195c0 5.203-4.234 9.436-9.436 9.436zm40.887-1.049H29.906a11.603 11.603 0 0 0 1.763-2.096h31.234v2.096z"/>
    </g>
</svg>
