<svg xmlns="http://www.w3.org/2000/svg" width="10" height="10" viewBox="0 0 10 10">
    <g fill="#7A7A7A" fill-rule="evenodd">
        <path d="M3.786 2.96a27.93 27.93 0 0 1-.1.1l.1-.1z"/>
        <path d="M5.506 3.282a.87.87 0 0 1 .061 1.016c-.048.082-.112.16-.192.236l-.267.263c-.255.251-.42.473-.496.668-.075.194-.113.45-.113.767h.593c0-.28.032-.49.095-.634.063-.143.201-.318.414-.524.294-.284.488-.5.584-.646.097-.147.145-.338.145-.573 0-.388-.13-.707-.394-.957-.263-.25-.613-.375-1.05-.375-.473 0-.845.146-1.116.438-.27.292-.406.677-.406 1.157h.592c.011-.289.057-.51.137-.663.142-.275.398-.413.769-.413.3 0 .514.08.644.24z"/>
        <path fill-rule="nonzero" d="M10 5A5 5 0 1 0 0 5a5 5 0 0 0 10 0zM.455 5a4.545 4.545 0 1 1 9.09 0 4.545 4.545 0 0 1-9.09 0z"/>
        <path d="M4.485 6.785h1v1h-1z"/>
    </g>
</svg>
