<svg xmlns="http://www.w3.org/2000/svg" width="17" height="16" viewBox="0 0 17 16">
    <path fill="#FFF" fill-rule="evenodd" d="M8.426 15.986c4.64 0 8.416-3.708 8.416-8.265a8.19 8.19 0 0 0-2.33-5.707l.485-1.069c.267-.59-.118-1.007-.862-.931L9.78.462c-.743.076-.99.62-.551 1.214l2.572 3.48c.44.595.982.666 1.212.16l.416-.918a5.86 5.86 0 0 1 1.044 3.323c0 3.275-2.713 5.939-6.047 5.939-3.335 0-6.048-2.664-6.048-5.94a5.85 5.85 0 0 1 .79-2.937 1.152 1.152 0 0 0-.441-1.586 1.196 1.196 0 0 0-1.616.434A8.15 8.15 0 0 0 .009 7.72c0 4.557 3.776 8.265 8.417 8.265z" opacity=".9"/>
</svg>
