<svg xmlns="http://www.w3.org/2000/svg" width="18" height="18" viewBox="0 0 18 18">
    <path fill="#4A4A4A" fill-rule="evenodd" d="M14.494 12.724c-.686 0-1.3.269-1.769.693L6.281 9.67c.046-.208.082-.417.082-.633a2.94 2.94 0 0 0-.082-.633l6.372-3.713a2.706 2.706 0 0 0 4.554-1.98c0-1.499-1.212-2.71-2.713-2.71-1.5 0-2.71 1.211-2.71 2.71 0 .219.036.424.082.633L5.494 7.059a2.693 2.693 0 0 0-1.842-.733 2.707 2.707 0 0 0-2.713 2.71c0 1.5 1.21 2.71 2.713 2.71a2.7 2.7 0 0 0 1.841-.73l6.434 3.756a2.63 2.63 0 0 0-.072.59A2.643 2.643 0 0 0 14.493 18a2.643 2.643 0 0 0 2.64-2.639 2.642 2.642 0 0 0-2.64-2.637z"/>
</svg>
