<?xml version="1.0" encoding="UTF-8"?>
<svg width="16px" height="16px" viewBox="0 0 16 16" version="1.1" xmlns="http://www.w3.org/2000/svg" xmlns:xlink="http://www.w3.org/1999/xlink">
    <!-- Generator: Sketch 52.2 (67145) - http://www.bohemiancoding.com/sketch -->
    <title>Star@2x</title>
    <desc>Created with Sketch.</desc>
    <g id="Symbol" stroke="none" stroke-width="1" fill="none" fill-rule="evenodd">
        <g id="Icn/-Star/-OutLine" stroke="#FAAA5A">
            <path d="M7.7001399,12.5192282 L4.26990925,15.0900274 C4.04893743,15.2556356 3.73555243,15.2107544 3.56994427,14.9897826 C3.47483692,14.8628804 3.44557038,14.6983841 3.49107099,14.5464655 L4.78135316,10.2384369 C4.84053452,10.0408405 4.7723015,9.82718174 4.60954797,9.70046145 L1.1312837,6.99227642 C0.913397211,6.82262947 0.874291338,6.50847154 1.04393829,6.29058505 C1.1376452,6.17023235 1.28116335,6.09923565 1.43368759,6.09778078 L5.70963263,6.05699415 C5.92553654,6.05493473 6.11573014,5.91451848 6.18127106,5.70879262 L7.52359248,1.49539148 C7.6074159,1.23227887 7.88866312,1.08693627 8.15177573,1.17075969 C8.30620613,1.21995871 8.4272085,1.34096108 8.47640752,1.49539148 L9.81872894,5.70879262 C9.88426986,5.91451848 10.0744635,6.05493473 10.2903674,6.05699415 L14.5663124,6.09778078 C14.8424422,6.10041467 15.0641545,6.32639731 15.0615206,6.60252713 C15.0600657,6.75505136 14.989069,6.89856951 14.8687163,6.99227642 L11.390452,9.70046145 C11.2276985,9.82718174 11.1594655,10.0408405 11.2186468,10.2384369 L12.508929,14.5464655 C12.5881581,14.8109978 12.4379402,15.0896715 12.1734079,15.1689007 C12.0214892,15.2144013 11.856993,15.1851347 11.7300907,15.0900274 L8.2998601,12.5192282 C8.12213934,12.3860348 7.87786066,12.3860348 7.7001399,12.5192282 Z" id="Star"></path>
        </g>
    </g>
</svg>