<svg xmlns="http://www.w3.org/2000/svg" width="100" height="100" viewBox="0 0 100 100">
    <g fill="none" fill-rule="evenodd">
        <path fill="#ECECEC" d="M53.226 61.29H20.968a1.611 1.611 0 0 1-1.613-1.613V27.42c0-.892.72-1.613 1.613-1.613h32.258c.892 0 1.613.721 1.613 1.613v32.258c0 .892-.721 1.613-1.613 1.613z"/>
        <path fill="#D5D5D5" fill-rule="nonzero" d="M91.935 25.806h-4.838V0H12.903v25.806H8.065C3.618 25.806 0 29.424 0 33.871v48.387c0 4.447 3.618 8.065 8.065 8.065h22.462c-.254 2.266-1.017 4.44-2.295 6.356l-.063.095h-5.588V100h54.838v-3.226h-5.588l-.063-.095c-1.278-1.916-2.039-4.092-2.295-6.356h22.462c4.447 0 8.065-3.618 8.065-8.065V33.871c0-4.447-3.618-8.065-8.065-8.065zm-8.064-22.58v9.677H16.129V3.226h67.742zM8.065 29.032h4.838v45.162h74.194v-38.71H83.87v35.484H16.129V16.129h67.742v16.13h3.226v-3.227h4.838a4.845 4.845 0 0 1 4.84 4.839v43.548H3.224V33.871a4.845 4.845 0 0 1 4.84-4.839zm60.033 67.742H31.902a17.483 17.483 0 0 0 1.887-6.451H66.21c.207 2.258.849 4.44 1.887 6.451zm23.837-9.677H8.065a4.845 4.845 0 0 1-4.84-4.839v-1.613h93.55v1.613a4.845 4.845 0 0 1-4.84 4.839z"/>
        <path fill="#D5D5D5" fill-rule="nonzero" d="M29.032 52.61l18.123-9.062-18.123-9.06V52.61zm3.226-12.904l7.684 3.842-7.684 3.842v-7.684zM58.065 41.935h22.58v-22.58h-22.58v22.58zm3.225-19.354h16.13V38.71H61.29V22.58zM58.065 67.742h22.58v-22.58h-22.58v22.58zm3.225-19.355h16.13v16.13H61.29v-16.13z"/>
        <path fill="#D5D5D5" d="M19.355 6.452h3.226v3.226h-3.226zM25.806 6.452h3.226v3.226h-3.226zM32.258 6.452h3.226v3.226h-3.226z"/>
    </g>
</svg>
