<svg xmlns="http://www.w3.org/2000/svg" width="18" height="18" viewBox="0 0 18 18">
    <path fill="#284664" fill-rule="nonzero" stroke="#284664" stroke-width=".5" d="M17 8.453h-.775v-3.53c0-.847-.696-1.536-1.551-1.536h-1.05l-1.075-1.913a.932.932 0 0 0-1.266-.358l-4.125 2.27H2.551C1.696 3.387 1 4.077 1 4.923v10.543C1 16.31 1.696 17 2.55 17h12.124c.855 0 1.55-.689 1.55-1.535v-3.096H17V8.453zm-2.326-4.452c.477 0 .868.36.92.819h-1.166l-.46-.82h.706zm-3.09-2.348a.318.318 0 0 1 .422.119L13.72 4.82H5.832l5.753-3.167zm4.02 13.812a.927.927 0 0 1-.93.92H2.55a.927.927 0 0 1-.93-.92V4.922c0-.508.417-.921.93-.921h3.492l-1.488.819h-1.81a.309.309 0 0 0-.31.307c0 .17.138.307.31.307h12.859v3.02h-2.268c-1.054 0-1.91.848-1.91 1.891v.132c0 1.043.857 1.892 1.91 1.892h2.268v3.096zm.776-3.71h-3.045c-.71 0-1.29-.574-1.29-1.278v-.132c0-.704.58-1.277 1.29-1.277h3.045v2.686zm-2.094-1.319a.681.681 0 0 1-.685.678.681.681 0 0 1-.685-.678c0-.374.307-.678.685-.678.378 0 .685.304.685.678z"/>
</svg>
