<svg xmlns="http://www.w3.org/2000/svg" xmlns:xlink="http://www.w3.org/1999/xlink" width="22" height="22" viewBox="0 0 22 22">
    <defs>
        <path id="a" d="M10.31 8.234h.645v2.579h-.644a.645.645 0 0 1-.645-.645v-1.29c0-.355.29-.644.645-.644zm2.665 3.954c.355 0 .644.288.644.644v1.29c0 .355-.29.644-.644.644h-.645v-2.579h.645zm-1.29-7.82c3.91 0 7.09 3.266 7.09 7.175 0 3.91-3.18 7.09-7.09 7.09-3.908 0-7.175-3.18-7.175-7.09 0-3.91 3.267-7.176 7.176-7.176zm1.29 6.444h-.645V8.235h.645c.355 0 .644.29.644.645a.644.644 0 1 0 1.29 0 1.936 1.936 0 0 0-1.934-1.934h-.645v-.644a.644.644 0 0 0-.644-.645c-.356 0-.73.289-.73.645v.644h-.645A1.936 1.936 0 0 0 8.377 8.88v1.289c0 1.066.868 2.02 1.934 2.02h.644v2.578h-.644a.645.645 0 0 1-.645-.645.644.644 0 1 0-1.289 0c0 1.066.868 1.934 1.934 1.934h.644v.644c0 .356.375.645.73.645a.644.644 0 0 0 .645-.645v-.644h.645a1.936 1.936 0 0 0 1.933-1.934v-1.289c0-1.066-.867-2.02-1.933-2.02zM11.685.5c6.042 0 10.958 5.001 10.958 11.043 0 6.042-4.916 10.957-10.957 10.957S.643 17.585.643 11.543C.643 5.501 5.645.5 11.686.5zm0 19.43c4.62 0 8.388-3.767 8.388-8.387 0-4.62-3.767-8.473-8.387-8.473-4.62 0-8.474 3.862-8.474 8.482 0 4.62 3.854 8.378 8.474 8.378z"/>
    </defs>
    <use fill="#FAAA5A" fill-rule="evenodd" transform="translate(-.643 -.5)" xlink:href="#a"/>
</svg>
