<svg xmlns="http://www.w3.org/2000/svg" xmlns:xlink="http://www.w3.org/1999/xlink" width="23" height="22" viewBox="0 0 23 22">
    <defs>
        <path id="a" d="M13.549 3.29l8.445 15.766A2 2 0 0 1 20.231 22H3.341a2 2 0 0 1-1.764-2.944L10.023 3.29a2 2 0 0 1 3.526 0z"/>
    </defs>
    <g fill="none" fill-rule="evenodd" transform="translate(0 -1)">
        <mask id="b" fill="#fff">
            <use xlink:href="#a"/>
        </mask>
        <use fill="#FFF" stroke="#FFF" stroke-width="1.5" xlink:href="#a"/>
        <g fill="#F1B000" mask="url(#b)">
            <path d="M-19.643-22.786h63v63h-63z"/>
        </g>
        <g fill="#FFF" mask="url(#b)">
            <g transform="translate(11 7.071)">
                <path d="M.943 0C.423 0 0 .372 0 .832v7.765c0 .46.422.832.943.832.52 0 .943-.373.943-.832V.832C1.886.372 1.464 0 .943 0z"/>
                <circle cx=".943" cy="11.629" r="1"/>
            </g>
        </g>
    </g>
</svg>
