<svg xmlns="http://www.w3.org/2000/svg" width="110" height="110" viewBox="0 0 110 110">
    <g fill="none" fill-rule="evenodd">
        <path fill="#ECECEC" d="M92.02 92.02c-4.878 0-8.848-3.969-8.848-8.848 0-4.879 3.97-8.848 8.849-8.848s8.848 3.97 8.848 8.849-3.97 8.848-8.848 8.848z"/>
        <path fill="#D5D5D5" fill-rule="nonzero" d="M102.638 56.628H67.246V46.421l28.062 5.909a35.68 35.68 0 0 0 7.33.759 7.086 7.086 0 0 0 7.079-7.079 7.06 7.06 0 0 0-4.355-6.533l-6.263-2.61v-8.553H88.482v4.129l-5.31-2.212v-8.995H72.556v4.57L67.2 23.576c-.223-5.77-1.67-11.5-4.253-16.663l-1.385-2.77A7.45 7.45 0 0 0 54.858 0a7.453 7.453 0 0 0-6.705 4.144l-1.386 2.77c-2.581 5.164-4.029 10.894-4.252 16.663l-5.353 2.23v-4.571H26.545v8.995l-5.31 2.212v-4.13H10.619v8.553l-6.263 2.609A7.064 7.064 0 0 0 0 46.01c0 3.904 3.175 7.08 7.116 7.08 2.444 0 4.896-.257 7.293-.76L42.47 46.42v10.207h-7.078c-2.112 0-4.012.93-5.31 2.402a7.06 7.06 0 0 0-5.308-2.402H7.079A7.085 7.085 0 0 0 0 63.707v38.931a7.086 7.086 0 0 0 7.079 7.079h17.696c2.111 0 4.012-.93 5.309-2.402a7.06 7.06 0 0 0 5.309 2.402h67.245a7.086 7.086 0 0 0 7.079-7.079V63.707a7.086 7.086 0 0 0-7.079-7.079zm3.54-10.618c0 1.952-1.588 3.54-3.577 3.54-2.2 0-4.408-.23-6.562-.683l-28.793-6.061v-3.417l20.837 4.808.796-3.45-21.633-4.993v-8.325l36.753 15.315a3.526 3.526 0 0 1 2.178 3.266zM92.02 31.853h3.539v3.54l-3.54-1.475v-2.065zm-15.927-7.078h3.54v3.981l-3.54-1.474v-2.507zm-46.01 0h3.539v2.508l-3.54 1.474v-3.982zm-15.927 7.078h3.54v2.065l-3.54 1.474v-3.539zm-.478 17.013a32.067 32.067 0 0 1-6.6.683 3.543 3.543 0 0 1-3.54-3.539 3.53 3.53 0 0 1 2.179-3.268L42.47 27.429v8.324l-21.633 4.992.796 3.45 20.837-4.809v3.417L13.68 48.866zm32.331-23.75a37.371 37.371 0 0 1 3.924-16.62l1.385-2.77a3.935 3.935 0 0 1 3.54-2.187c1.51 0 2.865.84 3.54 2.188l1.385 2.769a37.371 37.371 0 0 1 3.923 16.62v31.512H46.01V25.116zm56.628 81.061H35.392a3.543 3.543 0 0 1-3.539-3.539h-3.54a3.543 3.543 0 0 1-3.538 3.54H7.079a3.543 3.543 0 0 1-3.54-3.54v-3.54h21.236V95.56H3.539V70.785h21.236v-3.54H3.539v-3.539a3.543 3.543 0 0 1 3.54-3.54h17.696a3.543 3.543 0 0 1 3.54 3.54h3.539a3.543 3.543 0 0 1 3.539-3.54H102.639a3.543 3.543 0 0 1 3.54 3.54v3.54H35.391v3.539h70.785V95.56H35.393v3.539h70.785v3.54a3.543 3.543 0 0 1-3.54 3.538z"/>
        <path fill="#D5D5D5" d="M28.314 88.481h3.539v3.539h-3.539zM28.314 81.403h3.539v3.539h-3.539zM28.314 74.324h3.539v3.539h-3.539zM28.314 67.246h3.539v3.539h-3.539zM28.314 95.56h3.539v3.539h-3.539zM8.848 74.324h3.539V92.02H8.848zM17.696 74.324h3.539V92.02h-3.539zM35.392 76.094h44.241v3.539H35.392zM35.392 86.712h44.241v3.539H35.392z"/>
        <path fill="#ECECEC" d="M35.392 79.633h44.241v7.079H35.392z"/>
    </g>
</svg>
