<svg xmlns="http://www.w3.org/2000/svg" width="13" height="20" viewBox="0 0 13 20">
    <path fill="#C7C7C7" fill-rule="nonzero" d="M12.834 2.49c0 .334-.065.65-.194.947-.13.297-.301.56-.514.788a2.346 2.346 0 0 1-1.713.73c-.335 0-.65-.064-.947-.194a2.405 2.405 0 0 1-.777-.536 2.643 2.643 0 0 1-.525-.788 2.346 2.346 0 0 1-.194-.948c0-.335.065-.655.194-.959.13-.304.304-.57.525-.8.22-.228.48-.406.777-.536.296-.13.612-.194.947-.194a2.346 2.346 0 0 1 1.713.73c.213.23.384.496.514.8.129.304.194.624.194.96zm0 7.512c0 .35-.065.674-.194.97-.13.297-.301.556-.514.777a2.36 2.36 0 0 1-.765.525c-.297.13-.613.194-.948.194-.335 0-.65-.064-.947-.194a2.497 2.497 0 0 1-.777-.525c-.22-.22-.396-.48-.525-.776a2.403 2.403 0 0 1-.194-.97c0-.336.065-.656.194-.96.13-.304.304-.567.525-.788.22-.22.48-.396.777-.525.296-.13.612-.194.947-.194.335 0 .651.065.948.194.297.13.552.304.765.525a2.567 2.567 0 0 1 .708 1.747zm-.069 7.513c0 .335-.06.647-.183.936-.121.29-.289.54-.502.754-.213.213-.464.38-.753.502a2.33 2.33 0 0 1-.914.183c-.32 0-.624-.061-.913-.183-.29-.121-.54-.289-.754-.502a2.335 2.335 0 0 1-.502-.754 2.387 2.387 0 0 1-.183-.936c0-.32.06-.624.183-.913.122-.29.289-.545.502-.765a2.33 2.33 0 0 1 1.667-.697c.32 0 .624.061.914.183.289.122.54.293.753.514.213.22.38.475.502.765.122.289.183.593.183.913zM4.864 2.49c0 .335-.065.65-.194.948-.13.297-.3.56-.514.788a2.346 2.346 0 0 1-1.713.73c-.334 0-.65-.064-.947-.194a2.405 2.405 0 0 1-.777-.536 2.643 2.643 0 0 1-.525-.788A2.346 2.346 0 0 1 0 2.489c0-.335.065-.655.194-.959C.324 1.226.5.96.72.73.94.503 1.2.325 1.496.195 1.793.064 2.109 0 2.443 0a2.346 2.346 0 0 1 1.713.73c.213.23.385.496.514.8.13.304.194.624.194.96zm0 7.513c0 .35-.065.674-.194.97-.13.297-.3.556-.514.777-.213.22-.468.396-.765.525-.297.13-.613.194-.948.194-.334 0-.65-.064-.947-.194a2.497 2.497 0 0 1-.777-.525c-.22-.22-.395-.48-.525-.776a2.403 2.403 0 0 1-.194-.97c0-.336.065-.656.194-.96.13-.304.305-.567.525-.788.221-.22.48-.396.777-.525.297-.13.613-.194.947-.194.335 0 .651.065.948.194.297.13.552.304.765.525a2.566 2.566 0 0 1 .708 1.747zm0 7.513c0 .35-.065.674-.194.97-.13.297-.3.556-.514.777-.213.22-.468.396-.765.525-.297.13-.613.194-.948.194-.334 0-.65-.064-.947-.194a2.5 2.5 0 0 1-.777-.525c-.22-.22-.395-.48-.525-.776a2.403 2.403 0 0 1-.194-.97c0-.336.065-.656.194-.96.13-.305.305-.567.525-.788.221-.22.48-.396.777-.525.297-.13.613-.194.947-.194.335 0 .651.064.948.194.297.13.552.304.765.525a2.566 2.566 0 0 1 .708 1.747z"/>
</svg>
