<?xml version="1.0" encoding="UTF-8"?>
<svg width="28px" height="35px" viewBox="0 0 28 35" version="1.1" xmlns="http://www.w3.org/2000/svg" xmlns:xlink="http://www.w3.org/1999/xlink">
    <!-- Generator: Sketch 52.2 (67145) - http://www.bohemiancoding.com/sketch -->
    <title>document@2x</title>
    <desc>Created with Sketch.</desc>
    <g id="Desktop" stroke="none" stroke-width="1" fill="none" fill-rule="evenodd">
        <g id="[1400]-2.0-Detail-Page" transform="translate(-397.000000, -1489.000000)">
            <g id="document" transform="translate(397.000000, 1489.000000)">
                <path d="M4.32692308,0.692307692 C2.36538462,0.692307692 0.75,2.30769231 0.75,4.26923077 L0.75,30.5769231 C0.75,32.5384615 2.36538462,34.1538462 4.32692308,34.1538462 L23.2884615,34.1538462 C25.25,34.1538462 26.8653846,32.5384615 26.8653846,30.5769231 L26.8653846,8.03846154 L20.3653846,0.692307692 L4.32692308,0.692307692 Z" id="Path" fill="#F4F4F4"></path>
                <polygon id="Path" fill="#32B4C8" points="17.6346154 12.8461538 13.8269231 12.8461538 10.0192308 12.8461538 10.0192308 18.3846154 7.13461538 18.3846154 13.8269231 25.6153846 20.5192308 18.3846154 17.6346154 18.3846154"></polygon>
                <g id="Group" fill="#191919" fill-rule="nonzero">
                    <path d="M27.4807692,7.69230769 C27.4423077,7.65384615 27.4423077,7.61538462 27.4038462,7.57692308 L20.8653846,0.230769231 C20.8269231,0.192307692 20.75,0.153846154 20.7115385,0.115384615 C20.6730769,0.115384615 20.6730769,0.0769230769 20.6346154,0.0769230769 C20.5576923,0.0384615385 20.4423077,-1.11022302e-16 20.3653846,-1.11022302e-16 L4.32692308,-1.11022302e-16 C1.94230769,-1.00347081e-16 0.0192307692,1.92307692 0.0192307692,4.30769231 L0.0192307692,30.6153846 C0.0192307692,33 1.94230769,34.9230769 4.32692308,34.9230769 L23.2884615,34.9230769 C25.6730769,34.9230769 27.5961538,33 27.5961538,30.6153846 L27.5961538,8.03846154 C27.5961538,7.96153846 27.5576923,7.84615385 27.5576923,7.76923077 C27.5192308,7.73076923 27.5192308,7.69230769 27.4807692,7.69230769 Z M21.0576923,2.57692308 L25.2884615,7.30769231 L21.0576923,7.30769231 L21.0576923,2.57692308 Z M26.1730769,30.5769231 C26.1730769,32.1538462 24.9038462,33.4230769 23.3269231,33.4230769 L4.32692308,33.4230769 C2.75,33.4230769 1.48076923,32.1538462 1.48076923,30.5769231 L1.48076923,4.26923077 C1.48076923,2.69230769 2.75,1.42307692 4.32692308,1.42307692 L19.6346154,1.42307692 L19.6346154,8.03846154 C19.6346154,8.42307692 19.9423077,8.76923077 20.3653846,8.76923077 L26.1730769,8.76923077 L26.1730769,30.5769231 Z" id="Shape"></path>
                    <path d="M20.5192308,17.6538462 L18.3653846,17.6538462 L18.3653846,12.8461538 C18.3653846,12.4615385 18.0576923,12.1153846 17.6346154,12.1153846 L10.0192308,12.1153846 C9.63461538,12.1153846 9.28846154,12.4230769 9.28846154,12.8461538 L9.28846154,17.6923077 L7.13461538,17.6923077 C6.86538462,17.6923077 6.59615385,17.8461538 6.48076923,18.1153846 C6.36538462,18.3846154 6.40384615,18.6923077 6.59615385,18.8846154 L13.2884615,26.1153846 C13.4423077,26.2692308 13.5961538,26.3461538 13.8269231,26.3461538 C14.0192308,26.3461538 14.2115385,26.2692308 14.3653846,26.1153846 L21.0576923,18.8846154 C21.25,18.6923077 21.2884615,18.3846154 21.1730769,18.1153846 C21.0576923,17.8461538 20.7884615,17.6538462 20.5192308,17.6538462 Z M13.8269231,24.5769231 L8.78846154,19.1153846 L10.0192308,19.1153846 C10.4038462,19.1153846 10.75,18.8076923 10.75,18.3846154 L10.75,13.5384615 L16.9423077,13.5384615 L16.9423077,18.3846154 C16.9423077,18.7692308 17.25,19.1153846 17.6730769,19.1153846 L18.9038462,19.1153846 L13.8269231,24.5769231 Z" id="Shape"></path>
                </g>
            </g>
        </g>
    </g>
</svg>