<?xml version="1.0" encoding="utf-8"?>
<!-- Generator: Adobe Illustrator 21.0.0, SVG Export Plug-In . SVG Version: 6.00 Build 0)  -->
<svg version="1.1" id="Layer_1" xmlns="http://www.w3.org/2000/svg" xmlns:xlink="http://www.w3.org/1999/xlink" x="0px" y="0px"
	 viewBox="0 0 32 32" style="enable-background:new 0 0 32 32;" xml:space="preserve">
<style type="text/css">
	.st0{fill:#FFFFFF;}
	.st1{filter:url(#Adobe_OpacityMaskFilter);}
	.st2{mask:url(#b);}
</style>
<g>
	<g>
		<path id="a_1_" class="st0" d="M19.7,15.7l-8.9-8.9c-0.4-0.4-0.4-1.2,0-1.6c0,0,0,0,0,0c0.4-0.4,1.2-0.4,1.6,0l9.7,9.7
			c0.4,0.4,0.4,1.2,0,1.6c0,0,0,0,0,0l-9.7,9.7c-0.4,0.4-1.2,0.4-1.6,0c-0.4-0.4-0.4-1.2,0-1.6c0,0,0,0,0,0L19.7,15.7L19.7,15.7z"/>
	</g>
	<defs>
		<filter id="Adobe_OpacityMaskFilter" filterUnits="userSpaceOnUse" x="0.5" y="-0.5" width="31" height="32">
			<feColorMatrix  type="matrix" values="1 0 0 0 0  0 1 0 0 0  0 0 1 0 0  0 0 0 1 0"/>
		</filter>
	</defs>
	<mask maskUnits="userSpaceOnUse" x="0.5" y="-0.5" width="31" height="32" id="b">
		<g class="st1">
			<path id="a" class="st0" d="M19.7,15.7l-8.9-8.9c-0.4-0.4-0.4-1.2,0-1.6c0,0,0,0,0,0c0.4-0.4,1.2-0.4,1.6,0l9.7,9.7
				c0.4,0.4,0.4,1.2,0,1.6c0,0,0,0,0,0l-9.7,9.7c-0.4,0.4-1.2,0.4-1.6,0c-0.4-0.4-0.4-1.2,0-1.6c0,0,0,0,0,0L19.7,15.7L19.7,15.7z"
				/>
		</g>
	</mask>
	<g class="st2">
		<path class="st0" d="M0.5,31.5v-32h31v32H0.5z"/>
	</g>
</g>
</svg>
