<?xml version="1.0" encoding="UTF-8"?>
<svg width="52px" height="52px" viewBox="0 0 52 52" version="1.1" xmlns="http://www.w3.org/2000/svg" xmlns:xlink="http://www.w3.org/1999/xlink">
    <!-- Generator: Sketch 52.2 (67145) - http://www.bohemiancoding.com/sketch -->
    <title>Fill 5</title>
    <desc>Created with Sketch.</desc>
    <g id="Symbols" stroke="none" stroke-width="1" fill="none" fill-rule="evenodd">
        <g id="SOT/-Icn/-Headphone" transform="translate(-6.000000, -6.000000)" fill="#284664">
            <path d="M54.6666667,51.84928 C54.6666667,53.4155467 53.3922667,54.6899467 51.826,54.6899467 L49.7392,54.6899467 C48.1729333,54.6899467 46.8985333,53.4155467 46.8985333,51.84928 L46.8985333,39.3275467 C46.8985333,37.76128 48.1729333,36.48688 49.7392,36.48688 L51.826,36.48688 C53.3922667,36.48688 54.6666667,37.76128 54.6666667,39.3275467 L54.6666667,39.9771467 L54.6666667,51.84928 Z M12.1738667,36.48688 L14.2609333,36.48688 C15.8272,36.48688 17.1014667,37.76128 17.1014667,39.3275467 L17.1014667,51.84928 C17.1014667,53.4155467 15.8272,54.6899467 14.2609333,54.6899467 L12.1738667,54.6899467 C10.6076,54.6899467 9.33333333,53.4155467 9.33333333,51.84928 L9.33333333,39.9771467 L9.33333333,39.3275467 C9.33333333,37.76128 10.6076,36.48688 12.1738667,36.48688 Z M32,6.64341333 C18.0312,6.64341333 6.66666667,18.0078133 6.66666667,31.9767467 L6.66666667,39.3275467 L6.66666667,39.9771467 L6.66666667,51.84928 C6.66666667,54.8859467 9.1372,57.3566133 12.1738667,57.3566133 L14.2609333,57.3566133 C17.2976,57.3566133 19.7681333,54.8859467 19.7681333,51.84928 L19.7681333,39.3275467 C19.7681333,36.29088 17.2976,33.8202133 14.2609333,33.8202133 L12.1738667,33.8202133 C11.1353333,33.8202133 10.1633333,34.1094133 9.33333333,34.6111467 L9.33333333,31.9767467 C9.33333333,19.4783467 19.5016,9.31008 32,9.31008 C44.4984,9.31008 54.6666667,19.4783467 54.6666667,31.9767467 L54.6666667,34.61128 C53.8366667,34.1095467 52.8645333,33.8202133 51.826,33.8202133 L49.7392,33.8202133 C46.7025333,33.8202133 44.2318667,36.29088 44.2318667,39.3275467 L44.2318667,51.84928 C44.2318667,54.8859467 46.7025333,57.3566133 49.7392,57.3566133 L51.826,57.3566133 C54.8628,57.3566133 57.3333333,54.8859467 57.3333333,51.84928 L57.3333333,39.9771467 L57.3333333,39.3275467 L57.3333333,31.9767467 C57.3333333,18.0078133 45.9689333,6.64341333 32,6.64341333 Z" id="Fill-5"></path>
        </g>
    </g>
</svg>