<?xml version="1.0" encoding="UTF-8"?>
<svg width="38px" height="60px" viewBox="0 0 38 60" version="1.1" xmlns="http://www.w3.org/2000/svg" xmlns:xlink="http://www.w3.org/1999/xlink">
    <!-- Generator: Sketch 52.2 (67145) - http://www.bohemiancoding.com/sketch -->
    <title>Group</title>
    <desc>Created with Sketch.</desc>
    <g id="Symbols" stroke="none" stroke-width="1" fill="none" fill-rule="evenodd">
        <g id="SOT/-Icn/-Speaker" transform="translate(-13.000000, -2.000000)" fill="#284664">
            <g id="Group" transform="translate(13.000000, 2.000000)">
                <path d="M12.33112,10.1128267 C12.33152,10.0994933 12.33312,10.08656 12.33312,10.0730933 C12.33312,6.39482667 15.3237867,3.40229333 19.0000533,3.40229333 C22.6761867,3.40229333 25.6669867,6.39482667 25.6669867,10.0730933 C25.6669867,10.08656 25.6684533,10.0994933 25.6688533,10.1128267 C25.6684533,10.12616 25.6669867,10.1390933 25.6669867,10.15256 L25.6669867,31.40336 C25.6669867,35.0786933 22.6761867,38.06896 19.0000533,38.06896 C15.3237867,38.06896 12.33312,35.0786933 12.33312,31.40336 L12.33312,10.15256 C12.33312,10.1390933 12.33152,10.12616 12.33112,10.1128267 M19.0000533,40.7356267 C24.1465867,40.7356267 28.3336533,36.5490933 28.3336533,31.40336 L28.3336533,10.15256 C28.3336533,10.1390933 28.3320533,10.12616 28.3316533,10.1128267 C28.3320533,10.0994933 28.3336533,10.08656 28.3336533,10.0730933 C28.3336533,4.92442667 24.1465867,0.735626667 19.0000533,0.735626667 C13.8533867,0.735626667 9.66645333,4.92442667 9.66645333,10.0730933 C9.66645333,10.08656 9.66792,10.0994933 9.66832,10.1128267 C9.66792,10.12616 9.66645333,10.1390933 9.66645333,10.15256 L9.66645333,31.40336 C9.66645333,36.5490933 13.8533867,40.7356267 19.0000533,40.7356267" id="Fill-3"></path>
                <path d="M36.0434933,22.71308 C35.3072267,22.71308 34.71016,23.3101467 34.71016,24.0464133 L34.71016,31.34948 C34.71016,40.0128133 27.6626933,47.0608133 19.0000267,47.0608133 C10.33736,47.0608133 3.28989333,40.0128133 3.28989333,31.34948 L3.28989333,24.0464133 C3.28989333,23.3101467 2.69282667,22.71308 1.95656,22.71308 C1.22016,22.71308 0.623226667,23.3101467 0.623226667,24.0464133 L0.623226667,31.35068 L0.623226667,31.35108 C0.624026667,41.0356133 8.15416,48.99348 17.6666933,49.6788133 L17.6666933,56.8000133 L8.04349333,56.8000133 C7.30722667,56.8000133 6.71016,57.39708 6.71016,58.1333467 C6.71016,58.8697467 7.30722667,59.46668 8.04349333,59.46668 L29.95656,59.46668 C30.6928267,59.46668 31.2898933,58.8697467 31.2898933,58.1333467 C31.2898933,57.39708 30.6928267,56.8000133 29.95656,56.8000133 L20.33336,56.8000133 L20.33336,49.6788133 C29.8458933,48.99348 37.3760267,41.0356133 37.3768267,31.35108 L37.3768267,31.35068 L37.3768267,24.0464133 C37.3768267,23.3101467 36.77976,22.71308 36.0434933,22.71308" id="Fill-5"></path>
            </g>
        </g>
    </g>
</svg>