<svg xmlns="http://www.w3.org/2000/svg" width="11" height="14" viewBox="0 0 11 14">
    <path fill="#C7C7C7" fill-rule="nonzero" d="M10.208 5.25h-.875V4.083A4.088 4.088 0 0 0 5.25 0a4.088 4.088 0 0 0-4.083 4.083V5.25H.292A.292.292 0 0 0 0 5.542v7.291C0 13.477.523 14 1.167 14h8.166c.644 0 1.167-.523 1.167-1.167V5.542a.292.292 0 0 0-.292-.292zm-4.085 6.093a.292.292 0 0 1-.29.324H4.667a.292.292 0 0 1-.29-.324l.184-1.655a1.154 1.154 0 0 1-.478-.938 1.168 1.168 0 0 1 2.334 0c0 .377-.179.72-.478.938l.184 1.655zm1.46-6.093H2.917V4.083A2.336 2.336 0 0 1 5.25 1.75a2.336 2.336 0 0 1 2.333 2.333V5.25z"/>
</svg>
