<?xml version="1.0" encoding="UTF-8"?>
<svg width="100px" height="100px" viewBox="0 0 100 100" version="1.1" xmlns="http://www.w3.org/2000/svg" xmlns:xlink="http://www.w3.org/1999/xlink">
    <!-- Generator: sketchtool 52.2 (67145) - http://www.bohemiancoding.com/sketch -->
    <title>06E04E51-7DE1-4204-8F6E-AA6A02D4D1C5</title>
    <desc>Created with sketchtool.</desc>
    <g id="Desktop" stroke="none" stroke-width="1" fill="none" fill-rule="evenodd">
        <g id="[1400]-1.3.2-Not-Intending-to-Study-Abroad" transform="translate(-1163.000000, -436.000000)">
            <g id="tutorial" transform="translate(1163.000000, 436.000000)">
                <path d="M53.2258065,61.2903226 L20.9677419,61.2903226 C20.0758065,61.2903226 19.3548387,60.5693548 19.3548387,59.6774194 L19.3548387,27.4193548 C19.3548387,26.5274194 20.0758065,25.8064516 20.9677419,25.8064516 L53.2258065,25.8064516 C54.1177419,25.8064516 54.8387097,26.5274194 54.8387097,27.4193548 L54.8387097,59.6774194 C54.8387097,60.5693548 54.1177419,61.2903226 53.2258065,61.2903226 Z" id="Path" fill="#FAAA5A"></path>
                <path d="M91.9354839,25.8064516 L87.0967742,25.8064516 L87.0967742,0 L12.9032258,0 L12.9032258,25.8064516 L8.06451613,25.8064516 C3.61774194,25.8064516 0,29.4241935 0,33.8709677 L0,82.2580645 C0,86.7048387 3.61774194,90.3225806 8.06451613,90.3225806 L30.5274194,90.3225806 C30.2725806,92.5887097 29.5096774,94.7629032 28.2322581,96.6790323 L28.1693548,96.7741935 L22.5806452,96.7741935 L22.5806452,100 L77.4193548,100 L77.4193548,96.7741935 L71.8306452,96.7741935 L71.7677419,96.6790323 C70.4903226,94.7629032 69.7290323,92.5870968 69.4725806,90.3225806 L91.9354839,90.3225806 C96.3822581,90.3225806 100,86.7048387 100,82.2580645 L100,33.8709677 C100,29.4241935 96.3822581,25.8064516 91.9354839,25.8064516 Z M83.8709677,3.22580645 L83.8709677,12.9032258 L16.1290323,12.9032258 L16.1290323,3.22580645 L83.8709677,3.22580645 Z M8.06451613,29.0322581 L12.9032258,29.0322581 L12.9032258,74.1935484 L87.0967742,74.1935484 L87.0967742,35.483871 L83.8709677,35.483871 L83.8709677,70.9677419 L16.1290323,70.9677419 L16.1290323,16.1290323 L83.8709677,16.1290323 L83.8709677,32.2580645 L87.0967742,32.2580645 L87.0967742,29.0322581 L91.9354839,29.0322581 C94.6032258,29.0322581 96.7741935,31.2032258 96.7741935,33.8709677 L96.7741935,77.4193548 L3.22580645,77.4193548 L3.22580645,33.8709677 C3.22580645,31.2032258 5.39677419,29.0322581 8.06451613,29.0322581 Z M68.0983871,96.7741935 L31.9016129,96.7741935 C32.9419355,94.7629032 33.5822581,92.5806452 33.7887097,90.3225806 L66.2112903,90.3225806 C66.4177419,92.5806452 67.0596774,94.7629032 68.0983871,96.7741935 Z M91.9354839,87.0967742 L8.06451613,87.0967742 C5.39677419,87.0967742 3.22580645,84.9258065 3.22580645,82.2580645 L3.22580645,80.6451613 L96.7741935,80.6451613 L96.7741935,82.2580645 C96.7741935,84.9258065 94.6032258,87.0967742 91.9354839,87.0967742 Z" id="Shape" fill="#284664" fill-rule="nonzero"></path>
                <path d="M29.0322581,52.6096774 L47.1548387,43.5483871 L29.0322581,34.4870968 L29.0322581,52.6096774 Z M32.2580645,39.7064516 L39.9419355,43.5483871 L32.2580645,47.3903226 L32.2580645,39.7064516 Z" id="Shape" fill="#284664" fill-rule="nonzero"></path>
                <path d="M58.0645161,41.9354839 L80.6451613,41.9354839 L80.6451613,19.3548387 L58.0645161,19.3548387 L58.0645161,41.9354839 Z M61.2903226,22.5806452 L77.4193548,22.5806452 L77.4193548,38.7096774 L61.2903226,38.7096774 L61.2903226,22.5806452 Z" id="Shape" fill="#284664" fill-rule="nonzero"></path>
                <path d="M58.0645161,67.7419355 L80.6451613,67.7419355 L80.6451613,45.1612903 L58.0645161,45.1612903 L58.0645161,67.7419355 Z M61.2903226,48.3870968 L77.4193548,48.3870968 L77.4193548,64.516129 L61.2903226,64.516129 L61.2903226,48.3870968 Z" id="Shape" fill="#284664" fill-rule="nonzero"></path>
                <rect id="Rectangle" fill="#D5D5D5" x="19.3548387" y="6.4516129" width="3.22580645" height="3.22580645"></rect>
                <rect id="Rectangle" fill="#D5D5D5" x="25.8064516" y="6.4516129" width="3.22580645" height="3.22580645"></rect>
                <rect id="Rectangle" fill="#D5D5D5" x="32.2580645" y="6.4516129" width="3.22580645" height="3.22580645"></rect>
            </g>
        </g>
    </g>
</svg>