<svg xmlns="http://www.w3.org/2000/svg" xmlns:xlink="http://www.w3.org/1999/xlink" width="22" height="18" viewBox="0 0 22 18">
    <defs>
        <path id="a" d="M13.006 3.102a3.701 3.701 0 0 1 1.723 2.75 2.987 2.987 0 1 0-1.722-2.75zM11.05 9.219a2.987 2.987 0 1 0 0-5.975 2.987 2.987 0 0 0 0 5.975zm1.267.203H9.781a3.83 3.83 0 0 0-3.825 3.825v3.1l.008.049.214.067c2.013.629 3.761.838 5.2.838 2.812 0 4.441-.801 4.542-.852l.2-.101h.02v-3.1a3.828 3.828 0 0 0-3.824-3.826zm4.943-3.084h-2.516a3.682 3.682 0 0 1-1.136 2.565 4.545 4.545 0 0 1 3.247 4.349v.955c2.483-.09 3.914-.795 4.009-.842l.2-.101h.02v-3.101a3.83 3.83 0 0 0-3.824-3.825zM5.807 6.135c.585 0 1.128-.17 1.589-.461a3.697 3.697 0 0 1 1.39-2.358c.003-.056.008-.112.008-.168a2.987 2.987 0 1 0-2.987 2.987zM8.49 8.903a3.684 3.684 0 0 1-1.135-2.55c-.094-.007-.186-.015-.281-.015H4.539a3.83 3.83 0 0 0-3.825 3.825v3.1l.008.048.214.068c1.614.504 3.055.736 4.307.81v-.937a4.546 4.546 0 0 1 3.247-4.35z"/>
    </defs>
    <use fill="#FAAA5A" fill-rule="nonzero" transform="translate(.071 .286)" xlink:href="#a"/>
</svg>
