<svg xmlns="http://www.w3.org/2000/svg" xmlns:xlink="http://www.w3.org/1999/xlink" width="17" height="19" viewBox="0 0 17 19">
    <defs>
        <path id="a" d="M8 1.354h-.784a.48.48 0 0 1 0-.958h2.526a.48.48 0 1 1 0 .958h-.784v.731c4.346.239 7.808 3.849 7.808 8.253 0 4.558-3.708 8.266-8.266 8.266S.234 14.896.234 10.338c0-4.39 3.44-7.99 7.766-8.25v-.734zm3.44 12.506v-.003a.48.48 0 0 0 .061-.673l-2.52-3.019V5.667a.48.48 0 1 0-.96 0v4.672c0 .032.004.064.01.096l.005.017c.002.01.004.021.007.028l.008.021.008.023.012.025.008.018a.482.482 0 0 0 .053.078l2.633 3.155a.48.48 0 0 0 .674.06z"/>
    </defs>
    <use fill="#FAAA5A" fill-rule="nonzero" xlink:href="#a"/>
</svg>
