<?xml version="1.0" encoding="UTF-8"?>
<svg width="110px" height="110px" viewBox="0 0 110 110" version="1.1" xmlns="http://www.w3.org/2000/svg" xmlns:xlink="http://www.w3.org/1999/xlink">
    <!-- Generator: sketchtool 52.2 (67145) - http://www.bohemiancoding.com/sketch -->
    <title>AFE29E23-3A53-4475-92ED-4DE3D9FCA93C</title>
    <desc>Created with sketchtool.</desc>
    <g id="Desktop" stroke="none" stroke-width="1" fill="none" fill-rule="evenodd">
        <g id="[1400]-1.3.1-Intending-to-Study-Abroad" transform="translate(-652.000000, -432.000000)">
            <g id="Group-2" transform="translate(468.000000, 352.000000)">
                <g id="boarding-pass" transform="translate(184.000000, 80.000000)">
                    <path d="M92.0205743,92.0205743 C87.1415541,92.0205743 83.1722635,88.0512838 83.1722635,83.1722635 C83.1722635,78.2932432 87.1415541,74.3243243 92.0205743,74.3243243 C96.8995946,74.3243243 100.868514,78.2936149 100.868514,83.1726351 C100.868514,88.0516554 96.8995946,92.0205743 92.0205743,92.0205743 Z" id="Path" fill="#FAAA5A"></path>
                    <path d="M102.638176,56.6280743 L67.2456757,56.6280743 L67.2456757,46.4207432 L95.3083108,52.329527 C97.7026689,52.8319595 100.15723,53.08875 102.638176,53.08875 C106.542061,53.08875 109.716824,49.9139865 109.716824,46.0101014 C109.716824,43.1434122 108.007365,40.579223 105.361791,39.4766216 L99.099223,36.8663514 L99.099223,28.3138514 L88.4816216,28.3138514 L88.4816216,32.4425676 L83.1726351,30.2306757 L83.1726351,21.2355743 L72.5550338,21.2355743 L72.5550338,25.8065203 L67.1999662,23.5749324 C66.9769932,17.8058784 65.529527,12.0758446 62.9475,6.91216216 L61.561723,4.14283784 C60.2859459,1.58719595 57.7165541,0 54.8584122,0 C52.0002703,0 49.4308784,1.58719595 48.1532432,4.14432432 L46.7674662,6.91364865 C44.1858108,12.0777027 42.7383446,17.8077365 42.5153716,23.5767905 L37.1621622,25.8065203 L37.1621622,21.2355743 L26.5445608,21.2355743 L26.5445608,30.2306757 L21.2355743,32.4425676 L21.2355743,28.3138514 L10.6176014,28.3138514 L10.6176014,36.8663514 L4.35503378,39.4747635 C1.70945946,40.579223 0,43.1434122 0,46.010473 C0,49.9143581 3.17476351,53.0891216 7.11581081,53.0891216 C9.55959459,53.0891216 12.0122973,52.8327027 14.4085135,52.3298986 L42.4711486,46.4211149 L42.4711486,56.6284459 L35.3925,56.6284459 C33.2813176,56.6284459 31.3808446,57.5575 30.0835135,59.0298649 C28.7865541,57.5575 26.8857095,56.6284459 24.774527,56.6284459 L7.07864865,56.6284459 C3.17476351,56.6280743 0,59.8028378 0,63.706723 L0,102.638176 C0,106.542061 3.17476351,109.716824 7.07864865,109.716824 L24.7748986,109.716824 C26.8860811,109.716824 28.7865541,108.78777 30.0838851,107.315405 C31.3808446,108.78777 33.2816892,109.716824 35.3928716,109.716824 L102.638176,109.716824 C106.542061,109.716824 109.716824,106.542061 109.716824,102.638176 L109.716824,63.706723 C109.716824,59.8028378 106.542061,56.6280743 102.638176,56.6280743 Z M106.1775,46.010473 C106.1775,47.9622297 104.590304,49.5497973 102.601014,49.5497973 C100.401385,49.5497973 98.1928378,49.3197635 96.0392905,48.8667568 L67.2456757,42.8056081 L67.2456757,39.3885473 L88.0828716,44.1965878 L88.8792568,40.7475676 L67.2456757,35.7537162 L67.2456757,27.4293919 L103.999054,42.7439189 C105.32277,43.2939189 106.1775,44.5752703 106.1775,46.010473 Z M92.0205743,31.8531757 L95.5598986,31.8531757 L95.5598986,35.3925 L92.0205743,33.918277 L92.0205743,31.8531757 Z M76.0939865,24.7748986 L79.6333108,24.7748986 L79.6333108,28.7564527 L76.0939865,27.2822297 L76.0939865,24.7748986 Z M30.0835135,24.7748986 L33.6228378,24.7748986 L33.6228378,27.2826014 L30.0835135,28.7568243 L30.0835135,24.7748986 Z M14.1569257,31.8531757 L17.69625,31.8531757 L17.69625,33.918277 L14.1569257,35.3925 L14.1569257,31.8531757 Z M13.6793919,48.8663851 C11.5239865,49.3193919 9.31543919,49.5494257 7.07864865,49.5494257 C5.12689189,49.5494257 3.53932432,47.9622297 3.53932432,46.0101014 C3.53932432,44.5748986 4.39405405,43.2935473 5.71777027,42.7416892 L42.4711486,27.4290203 L42.4711486,35.7533446 L20.8375676,40.7453378 L21.6339527,44.1943581 L42.4711486,39.3863176 L42.4711486,42.8033784 L13.6793919,48.8663851 Z M46.010473,25.1164189 C46.010473,19.3774662 47.3676351,13.6314527 49.9336824,8.49601351 L51.3194595,5.72668919 C51.9935811,4.37807432 53.3492568,3.53932432 54.8587838,3.53932432 C56.3683108,3.53932432 57.7239865,4.37807432 58.3981081,5.72668919 L59.7838851,8.49601351 C62.3499324,13.6314527 63.7070946,19.3774662 63.7070946,25.1164189 L63.7070946,56.6280743 L46.010473,56.6280743 L46.010473,25.1164189 Z M102.638176,106.1775 L35.3925,106.1775 C33.4407432,106.1775 31.8531757,104.590304 31.8531757,102.638176 L28.3138514,102.638176 C28.3138514,104.589932 26.7266554,106.1775 24.774527,106.1775 L7.07864865,106.1775 C5.12689189,106.1775 3.53932432,104.590304 3.53932432,102.638176 L3.53932432,99.0988514 L24.7748986,99.0988514 L24.7748986,95.559527 L3.53932432,95.559527 L3.53932432,70.7846284 L24.7748986,70.7846284 L24.7748986,67.2453041 L3.53932432,67.2453041 L3.53932432,63.7059797 C3.53932432,61.754223 5.12652027,60.1666554 7.07864865,60.1666554 L24.7748986,60.1666554 C26.7266554,60.1666554 28.314223,61.7538514 28.314223,63.7059797 L31.8535473,63.7059797 C31.8535473,61.754223 33.4407432,60.1666554 35.3928716,60.1666554 L42.4715203,60.1666554 L67.2464189,60.1666554 L102.638919,60.1666554 C104.590676,60.1666554 106.178243,61.7538514 106.178243,63.7059797 L106.178243,67.2453041 L35.3925,67.2453041 L35.3925,70.7846284 L106.1775,70.7846284 L106.1775,95.559527 L97.3291892,95.559527 L35.3925,95.559527 L35.3925,99.0988514 L97.3295608,99.0988514 L106.177872,99.0988514 L106.177872,102.638176 C106.1775,104.590304 104.590304,106.1775 102.638176,106.1775 Z" id="Shape" fill="#284664" fill-rule="nonzero"></path>
                    <rect id="Rectangle" fill="#284664" x="28.314223" y="88.48125" width="3.53932432" height="3.53932432"></rect>
                    <rect id="Rectangle" fill="#284664" x="28.314223" y="81.402973" width="3.53932432" height="3.53932432"></rect>
                    <rect id="Rectangle" fill="#284664" x="28.314223" y="74.3243243" width="3.53932432" height="3.53932432"></rect>
                    <rect id="Rectangle" fill="#284664" x="28.314223" y="67.2456757" width="3.53932432" height="3.53932432"></rect>
                    <rect id="Rectangle" fill="#284664" x="28.314223" y="95.5598986" width="3.53932432" height="3.53932432"></rect>
                    <rect id="Rectangle" fill="#284664" x="8.84831081" y="74.3243243" width="3.53932432" height="17.69625"></rect>
                    <rect id="Rectangle" fill="#284664" x="17.69625" y="74.3243243" width="3.53932432" height="17.69625"></rect>
                    <rect id="Rectangle" fill="#284664" x="35.3925" y="76.0939865" width="44.2408108" height="3.53932432"></rect>
                    <rect id="Rectangle" fill="#284664" x="35.3925" y="86.7115878" width="44.2408108" height="3.53932432"></rect>
                    <rect id="Rectangle" fill="#FAAA5A" x="35.3925" y="79.6333108" width="44.2408108" height="7.07864865"></rect>
                </g>
            </g>
        </g>
    </g>
</svg>