<?xml version="1.0" encoding="UTF-8"?>
<svg width="21px" height="18px" viewBox="0 0 21 18" version="1.1" xmlns="http://www.w3.org/2000/svg" xmlns:xlink="http://www.w3.org/1999/xlink">
    <!-- Generator: Sketch 52.2 (67145) - http://www.bohemiancoding.com/sketch -->
    <title>drag@2x</title>
    <desc>Created with Sketch.</desc>
    <g id="Desktop" stroke="none" stroke-width="1" fill="none" fill-rule="evenodd">
        <g id="[1400]-1.3.1.2-Financial-Information-(optional)" transform="translate(-1348.000000, -1034.000000)" fill="#FFFFFF">
            <g id="Group-Copy-4" transform="translate(1034.000000, 1023.000000)">
                <g id="drag" transform="translate(314.000000, 11.000000)">
                    <path d="M5.78462069,12.7685517 C5.40289655,12.7685517 5.09310345,13.0776552 5.09310345,13.460069 C5.09310345,13.8417241 5.40289655,14.1515172 5.78462069,14.1515172 C6.16634483,14.1515172 6.47606897,13.8417241 6.47606897,13.460069 C6.47606897,13.0776552 6.16634483,12.7685517 5.78462069,12.7685517 Z" id="Path"></path>
                    <path d="M3.23772414,12.7685517 C2.856,12.7685517 2.5462069,13.0776552 2.5462069,13.460069 C2.5462069,13.8417241 2.856,14.1515172 3.23772414,14.1515172 C3.62013793,14.1515172 3.92917241,13.8417241 3.92917241,13.460069 C3.92924138,13.0776552 3.62013793,12.7685517 3.23772414,12.7685517 Z" id="Path"></path>
                    <path d="M8.33151724,12.7685517 C7.94903448,12.7685517 7.64,13.0776552 7.64,13.460069 C7.64,13.8417241 7.94903448,14.1515172 8.33151724,14.1515172 C8.71317241,14.1515172 9.02296552,13.8417241 9.02296552,13.460069 C9.02296552,13.0776552 8.71317241,12.7685517 8.33151724,12.7685517 Z" id="Path"></path>
                    <path d="M10.8777241,12.7685517 C10.495931,12.7685517 10.1862069,13.0776552 10.1862069,13.460069 C10.1862069,13.8417241 10.495931,14.1515172 10.8777241,14.1515172 C11.260069,14.1515172 11.5691724,13.8417241 11.5691724,13.460069 C11.5691724,13.0776552 11.26,12.7685517 10.8777241,12.7685517 Z" id="Path"></path>
                    <path d="M0.691517241,12.7685517 C0.509586207,12.7685517 0.331172414,12.8418621 0.201931034,12.9711724 C0.074,13.0997931 0,13.2774483 0,13.4601379 C0,13.642 0.074,13.8204138 0.202,13.9489655 C0.331241379,14.0775862 0.509655172,14.1515862 0.691586207,14.1515862 C0.873517241,14.1515862 1.05193103,14.0775862 1.18048276,13.9489655 C1.30910345,13.8204138 1.38310345,13.642 1.38310345,13.4601379 C1.38310345,13.2775172 1.30917241,13.0997931 1.18048276,12.9711724 C1.05186207,12.8418621 0.873448276,12.7685517 0.691517241,12.7685517 Z" id="Path"></path>
                    <path d="M0.691517241,7.67137931 C0.309103448,7.67137931 0,7.98117241 0,8.36289655 C0,8.74462069 0.309103448,9.05441379 0.691517241,9.05441379 C1.07324138,9.05441379 1.38296552,8.74462069 1.38296552,8.36289655 C1.38303448,7.98117241 1.07331034,7.67137931 0.691517241,7.67137931 Z" id="Path"></path>
                    <path d="M0.691517241,5.12241379 C0.309103448,5.12241379 0,5.4322069 0,5.81393103 C0,6.19641379 0.309103448,6.50544828 0.691517241,6.50544828 C1.07324138,6.50544828 1.38296552,6.19641379 1.38296552,5.81393103 C1.38303448,5.4322069 1.07331034,5.12241379 0.691517241,5.12241379 Z" id="Path"></path>
                    <path d="M0.691517241,2.5742069 C0.309103448,2.5742069 0,2.88393103 0,3.26565517 C0,3.64744828 0.309103448,3.95724138 0.691517241,3.95724138 C1.07324138,3.95724138 1.38296552,3.64744828 1.38296552,3.26572414 C1.38303448,2.88393103 1.07331034,2.5742069 0.691517241,2.5742069 Z" id="Path"></path>
                    <path d="M0.691517241,10.2196552 C0.309103448,10.2196552 0,10.5294483 0,10.9111034 C0,11.2935862 0.309103448,11.6026207 0.691517241,11.6026207 C1.07324138,11.6026207 1.38296552,11.2935172 1.38296552,10.9111034 C1.38303448,10.5294483 1.07331034,10.2196552 0.691517241,10.2196552 Z" id="Path"></path>
                    <path d="M0.691517241,0.0259310345 C0.509586207,0.0259310345 0.331172414,0.0992413793 0.201931034,0.227862069 C0.074,0.356482759 0,0.534896552 0,0.71737931 C0,0.899310345 0.074,1.07772414 0.202,1.20634483 C0.331241379,1.33496552 0.509655172,1.40896552 0.691586207,1.40896552 C0.873517241,1.40896552 1.05117241,1.33503448 1.18048276,1.20634483 C1.30910345,1.07703448 1.38310345,0.899310345 1.38310345,0.71737931 C1.38310345,0.534896552 1.30917241,0.357103448 1.18048276,0.227793103 C1.05186207,0.0992413793 0.873448276,0.0259310345 0.691517241,0.0259310345 Z" id="Path"></path>
                    <path d="M10.8777241,1.40896552 C11.260069,1.40896552 11.5691724,1.09924138 11.5691724,0.717448276 C11.5691724,0.335034483 11.260069,0.026 10.8777241,0.026 C10.495931,0.026 10.1862069,0.335034483 10.1862069,0.717448276 C10.1861379,1.09917241 10.4958621,1.40896552 10.8777241,1.40896552 Z" id="Path"></path>
                    <path d="M13.4245517,1.40896552 C13.8062069,1.40896552 14.116,1.09924138 14.116,0.717448276 C14.116,0.335034483 13.8062069,0.026 13.4245517,0.026 C13.0427586,0.026 12.7330345,0.335034483 12.7330345,0.717448276 C12.7330345,1.09917241 13.0427586,1.40896552 13.4245517,1.40896552 Z" id="Path"></path>
                    <path d="M5.78462069,0.0259310345 C5.40289655,0.0259310345 5.09310345,0.334965517 5.09310345,0.71737931 C5.09310345,1.09917241 5.40289655,1.40889655 5.78462069,1.40889655 C6.16634483,1.40889655 6.47606897,1.09917241 6.47606897,0.71737931 C6.47606897,0.334965517 6.16634483,0.0259310345 5.78462069,0.0259310345 Z" id="Path"></path>
                    <path d="M3.23772414,0.0259310345 C2.856,0.0259310345 2.5462069,0.334965517 2.5462069,0.71737931 C2.5462069,1.09917241 2.856,1.40889655 3.23772414,1.40889655 C3.62013793,1.40889655 3.92917241,1.09917241 3.92917241,0.71737931 C3.92924138,0.334965517 3.62013793,0.0259310345 3.23772414,0.0259310345 Z" id="Path"></path>
                    <path d="M8.33151724,0.0259310345 C7.94903448,0.0259310345 7.64,0.334965517 7.64,0.71737931 C7.64,1.09917241 7.94903448,1.40889655 8.33151724,1.40889655 C8.71317241,1.40889655 9.02296552,1.09917241 9.02296552,0.71737931 C9.02296552,0.334965517 8.71317241,0.0259310345 8.33151724,0.0259310345 Z" id="Path"></path>
                    <path d="M15.9714483,1.40896552 C16.1533103,1.40896552 16.3317241,1.33503448 16.4602759,1.20634483 C16.5888966,1.07772414 16.6629655,0.899310345 16.6629655,0.71737931 C16.6629655,0.534896552 16.5889655,0.356482759 16.4602759,0.227793103 C16.3317241,0.0992413793 16.1533103,0.025862069 15.9714483,0.025862069 C15.7888276,0.025862069 15.6110345,0.0991724138 15.4824828,0.227793103 C15.3538621,0.357103448 15.2798621,0.534827586 15.2798621,0.71737931 C15.2798621,0.899310345 15.3537931,1.07703448 15.4824828,1.20634483 C15.6110345,1.33496552 15.7894483,1.40896552 15.9714483,1.40896552 Z" id="Path"></path>
                    <path d="M15.9714483,6.50544828 C16.3531034,6.50544828 16.6628966,6.19641379 16.6628966,5.81393103 C16.6628966,5.4322069 16.3531034,5.12248276 15.9714483,5.12248276 C15.5889655,5.12248276 15.279931,5.4322069 15.279931,5.81393103 C15.279931,6.19641379 15.5889655,6.50544828 15.9714483,6.50544828 Z" id="Path"></path>
                    <path d="M15.9714483,3.95724138 C16.3531034,3.95724138 16.6628966,3.64744828 16.6628966,3.26572414 C16.6628966,2.884 16.3531034,2.57427586 15.9714483,2.57427586 C15.5889655,2.57427586 15.279931,2.884 15.279931,3.26572414 C15.279931,3.64744828 15.5889655,3.95724138 15.9714483,3.95724138 Z" id="Path"></path>
                    <path d="M15.9714483,9.05441379 C16.3531034,9.05441379 16.6628966,8.74462069 16.6628966,8.36289655 C16.6628966,7.98048276 16.3531034,7.67144828 15.9714483,7.67144828 C15.5889655,7.67144828 15.279931,7.98048276 15.279931,8.36289655 C15.279931,8.74462069 15.5889655,9.05441379 15.9714483,9.05441379 Z" id="Path"></path>
                    <path d="M20.0288276,11.405931 L11.9224828,8.4402069 C11.6706207,8.3482069 11.387931,8.40993103 11.1975862,8.59903448 C11.0072414,8.78813793 10.9433793,9.0702069 11.033931,9.32282759 L13.9683448,17.5157931 C14.0651724,17.7862069 14.3190345,17.9684828 14.6062759,17.974 C14.6106897,17.974069 14.6150345,17.9741379 14.6193793,17.9741379 C14.9013793,17.9741379 15.1556552,17.8027586 15.2610345,17.5403448 L16.3617931,14.7997241 L18.6762759,17.1392414 C18.8115172,17.2758621 18.9896552,17.3444138 19.1678621,17.3444138 C19.3436552,17.3444138 19.5194483,17.2777931 19.6542759,17.1445517 C19.9257931,16.8758621 19.9281379,16.4381379 19.6595172,16.1665517 L17.3306207,13.8124828 L20.0537241,12.6953103 C20.3177241,12.5870345 20.4881379,12.3275172 20.4826207,12.0421379 C20.4771724,11.7566897 20.2968966,11.504069 20.0288276,11.405931 Z M15.8501379,12.9247586 C15.6773103,12.9956552 15.5405517,13.1334483 15.4708966,13.3068276 L14.6563448,15.3350345 L12.8337241,10.2462759 L17.8793793,12.0922759 L15.8501379,12.9247586 Z" id="Shape" fill-rule="nonzero"></path>
                </g>
            </g>
        </g>
    </g>
</svg>