<svg xmlns="http://www.w3.org/2000/svg" width="68" height="68" viewBox="0 0 68 68">
    <g fill="none" fill-rule="evenodd">
        <path fill="#D5D5D5" fill-rule="nonzero" d="M39.235 23.287l-9.999-7.333v7.333H18.525v6.285h2.142v-4.19h8.57v7.333l9.998-7.333h7.14v4.19h2.142v-6.285h-9.282zm-7.856 5.237v-8.38l5.712 4.19-5.712 4.19z"/>
        <path fill="#D5D5D5" d="M28.228 37.125h10.586v1.764H28.228z"/>
        <g fill="#ECECEC">
            <path d="M49.723 28.867c-6.545 0-11.87 5.286-11.87 11.784v17.14h3.237l5.396-1.071v-1.798a7.51 7.51 0 0 1-4.23-5.701h-.087c-1.788 0-3.238-1.439-3.238-3.214s1.45-3.214 3.238-3.214a2.15 2.15 0 0 1 2.158-2.142H55.12a2.15 2.15 0 0 1 2.158 2.142c1.788 0 3.237 1.439 3.237 3.214s-1.449 3.214-3.237 3.214h-.086a7.514 7.514 0 0 1-4.23 5.701v1.798l5.395 1.07h3.238V40.65c0-6.497-5.326-11.783-11.871-11.783zM60.815 19.953L37.328 1.31c-2.198-1.747-5.552-1.747-7.75 0L6.093 19.953a3.444 3.444 0 0 0-1.304 2.713c0 1.9 1.531 3.448 3.413 3.448h.363c.75 0 1.488-.254 2.082-.716L33.454 7.674l17.994 13.984 1.33 1.033 3.483 2.705a3.398 3.398 0 0 0 2.081.718h.364c1.881 0 3.413-1.547 3.413-3.448a3.444 3.444 0 0 0-1.304-2.713zM24.486 32.225a8.351 8.351 0 0 0-6.711-3.358c-6.782 0-12.297 5.475-12.297 12.207v4.933h1.079c0-1.775 1.45-3.214 3.237-3.214 2.073 0 4.061-.817 5.527-2.272l.948-.942.864.643a13.012 13.012 0 0 0 7.77 2.571c1.788 0 3.237 1.439 3.237 3.214h1.08V38.64a6.723 6.723 0 0 0-4.734-6.415z"/>
        </g>
        <path fill="#D5D5D5" fill-rule="nonzero" d="M66.451 62.931c-.785-2.698-3.01-4.716-5.808-5.265l-6.082-1.195v-.192h-.147a8.57 8.57 0 0 0 4.22-5.409c2-.378 3.516-2.106 3.516-4.18 0-2.042-1.468-3.748-3.42-4.163a3.24 3.24 0 0 0-3.085-2.23H44.804a3.24 3.24 0 0 0-3.085 2.23c-1.952.415-3.42 2.12-3.42 4.162 0 2.075 1.517 3.803 3.517 4.181a8.564 8.564 0 0 0 4.22 5.41h-.148v.19l-6.081 1.196c-2.798.55-5.024 2.567-5.808 5.265l-.037.124-.036-.124c-.785-2.698-3.01-4.716-5.807-5.265l-6.082-1.195v-.28c2.005-1.144 3.5-3.053 4.072-5.32 2-.379 3.517-2.107 3.517-4.182 0-2.35-1.945-4.262-4.337-4.262a12.14 12.14 0 0 1-7.157-2.344l-1.618-1.193-1.618 1.59a6.784 6.784 0 0 1-4.785 1.947c-2.392 0-4.337 1.912-4.337 4.262 0 2.075 1.517 3.803 3.517 4.181.573 2.268 2.067 4.177 4.072 5.322v.279l-6.08 1.195c-2.799.55-5.025 2.567-5.809 5.265L0 68h67.924l-1.473-5.069zM27.457 46.69c0 .786-.439 1.465-1.084 1.835v-3.669a2.115 2.115 0 0 1 1.084 1.834zm-19.514 0c0-.785.439-1.465 1.084-1.835v3.67a2.115 2.115 0 0 1-1.084-1.835zm3.252 2.131v-4.333a8.92 8.92 0 0 0 5.234-2.501l.289-.283.113.084a14.352 14.352 0 0 0 7.374 2.728v4.305c0 3.526-2.918 6.394-6.505 6.394-3.588 0-6.505-2.868-6.505-6.394zm8.453 8.3L17.7 59.035l-1.948-1.915a8.76 8.76 0 0 0 1.948.225 8.76 8.76 0 0 0 1.948-.225zM2.875 65.869l.684-2.353c.56-1.926 2.15-3.367 4.148-3.76l6.385-1.254 3.608 3.546 3.608-3.546 6.385 1.254c1.999.393 3.588 1.835 4.148 3.76l.684 2.353H2.875zm57.107-19.18c0 .786-.44 1.465-1.084 1.835v-3.669a2.115 2.115 0 0 1 1.084 1.834zm-19.515 0c0-.785.44-1.465 1.084-1.835v3.67a2.115 2.115 0 0 1-1.084-1.835zm3.253 2.131v-5.327c0-.589.485-1.066 1.084-1.066h10.841c.599 0 1.084.477 1.084 1.066v5.327c0 3.526-2.917 6.394-6.505 6.394-3.587 0-6.504-2.868-6.504-6.394zm8.453 8.3l-1.949 1.915-1.948-1.915a8.76 8.76 0 0 0 1.948.225 8.76 8.76 0 0 0 1.949-.225zM35.4 65.869l.684-2.353c.56-1.926 2.149-3.367 4.148-3.76l6.384-1.254 3.608 3.546 3.609-3.546 6.384 1.254c2 .393 3.589 1.835 4.148 3.76l.684 2.353H35.4z"/>
    </g>
</svg>
