<?xml version="1.0" encoding="UTF-8"?>
<svg width="59px" height="40px" viewBox="0 0 59 40" version="1.1" xmlns="http://www.w3.org/2000/svg" xmlns:xlink="http://www.w3.org/1999/xlink">
    <!-- Generator: Sketch 52.2 (67145) - http://www.bohemiancoding.com/sketch -->
    <title>laptop</title>
    <desc>Created with Sketch.</desc>
    <g id="Symbols" stroke="none" stroke-width="1" fill="none" fill-rule="evenodd">
        <g id="SOT/-Icn/-Laptop" transform="translate(-3.000000, -12.000000)" fill="#284664" fill-rule="nonzero">
            <g id="laptop" transform="translate(3.000000, 12.000000)">
                <path d="M53.4649083,1 L5.53522463,1 C4.68873119,1 4,1.72359723 4,2.61311484 L4,32.3868852 C4,33.2764028 4.68873119,34 5.53522463,34 L53.4649083,34 C54.3112688,34 55,33.2764028 55,32.3868852 L55,2.6132545 C55,1.72373689 54.3112688,1 53.4649083,1 Z M53.4833333,31.7885852 C53.4833333,31.9052043 53.3912649,32 53.2780008,32 L5.50546501,32 C5.39220093,32 5.3,31.9050679 5.3,31.7885852 L5.3,2.71141478 C5.3,2.59479566 5.39206846,2.5 5.50546501,2.5 L53.2780008,2.5 C53.3911324,2.5 53.4833333,2.59493206 53.4833333,2.71141478 L53.4833333,31.7885852 Z" id="Shape"></path>
                <path d="M57.6440125,33.3897179 L56.1714107,33.3897179 L56.1714107,3.58219436 C56.1714107,1.60702194 54.5645141,0 52.5892163,0 L5.9953605,0 C4.0200627,0 2.41316614,1.60689655 2.41316614,3.58219436 L2.41316614,33.3895925 L0.940438871,33.3895925 C0.420940439,33.3895925 0,33.8106583 0,34.3300313 L0,36.9137304 C0,38.5919749 1.36539185,39.9572414 3.04351097,39.9572414 L55.540815,39.9572414 C57.2190596,39.9572414 58.584326,38.5918495 58.584326,36.9137304 L58.584326,34.3300313 C58.5844514,33.8107837 58.163511,33.3897179 57.6440125,33.3897179 Z M4.2939185,3.58219436 C4.2939185,2.64413793 5.05717868,1.88087774 5.99523511,1.88087774 L52.5890909,1.88087774 C53.5271473,1.88087774 54.2904075,2.64401254 54.2904075,3.58219436 L54.2904075,33.3895925 L4.2939185,33.3895925 L4.2939185,3.58219436 Z M26.5335423,35.2705956 L32.0507837,35.2705956 L32.0507837,35.7623824 C32.0507837,35.9824451 31.8717241,36.1616301 31.6515361,36.1616301 L26.9326646,36.1616301 C26.7124765,36.1616301 26.5334169,35.9825705 26.5334169,35.7623824 L26.5334169,35.2705956 L26.5335423,35.2705956 Z M56.7036991,36.9138558 C56.7036991,37.5549843 56.1821944,38.076489 55.5410658,38.076489 L3.04363636,38.076489 C2.40250784,38.076489 1.88100313,37.5548589 1.88100313,36.9138558 L1.88100313,35.2705956 L3.35360502,35.2705956 L25.2797492,35.2705956 L25.2797492,35.7623824 C25.2797492,36.6739812 26.0213166,37.4155486 26.9329154,37.4155486 L31.6517868,37.4155486 C32.5633856,37.4155486 33.304953,36.6739812 33.304953,35.7623824 L33.304953,35.2705956 L55.2310972,35.2705956 L56.7036991,35.2705956 L56.7036991,36.9138558 Z" id="Shape"></path>
            </g>
        </g>
    </g>
</svg>