<?xml version="1.0" encoding="UTF-8"?>
<svg width="50px" height="55px" viewBox="0 0 50 55" version="1.1" xmlns="http://www.w3.org/2000/svg" xmlns:xlink="http://www.w3.org/1999/xlink">
    <!-- Generator: Sketch 52.2 (67145) - http://www.bohemiancoding.com/sketch -->
    <title>network-cam</title>
    <desc>Created with Sketch.</desc>
    <g id="Symbols" stroke="none" stroke-width="1" fill="none" fill-rule="evenodd">
        <g id="SOT/-Icn/-Camera" transform="translate(-7.000000, -5.000000)" fill="#284664">
            <g id="network-cam" transform="translate(7.000000, 5.000000)">
                <path d="M25.0119737,32.3031955 C30.907312,32.3031955 35.7034774,27.5070301 35.7034774,21.6116917 C35.7034774,15.7165602 30.907312,10.9203947 25.0119737,10.9203947 C19.1166353,10.9203947 14.3204699,15.7165602 14.3204699,21.6116917 C14.3204699,27.5070301 19.1166353,32.3031955 25.0119737,32.3031955 Z M25.0119737,14.0218985 C29.1971429,14.0218985 32.6019737,17.4267293 32.6019737,21.6116917 C32.6019737,25.7968609 29.1971429,29.2016917 25.0119737,29.2016917 C20.8268045,29.2016917 17.4219737,25.7968609 17.4219737,21.6116917 C17.4219737,17.4267293 20.8268045,14.0218985 25.0119737,14.0218985 Z" id="Shape" fill-rule="nonzero"></path>
                <path d="M25.0119737,25.9399436 C27.3984774,25.9399436 29.3402256,23.9984023 29.3402256,21.6116917 C29.3402256,19.225188 27.3986842,17.2836466 25.0119737,17.2836466 C22.6254699,17.2836466 20.6839286,19.225188 20.6839286,21.6116917 C20.6839286,23.9984023 22.6254699,25.9399436 25.0119737,25.9399436 Z" id="Path"></path>
                <path d="M49.6877444,50.1693045 L45.5534398,40.0538534 C44.791297,38.1892293 42.7399624,36.6976128 40.7095113,36.4503195 C44.3734211,32.5763346 46.6236654,27.3521617 46.6236654,21.6118985 C46.6236654,9.69509398 36.9285714,0 25.0119737,0 C13.0953759,0 3.40007519,9.69509398 3.40007519,21.6116917 C3.40007519,27.3519549 5.65031955,32.5761278 9.31422932,36.4501128 C7.28398496,36.697406 5.23265038,38.1892293 4.47050752,40.0536466 L0.336203008,50.1690977 C-0.149699248,51.3578008 -0.067612782,52.576485 0.561165414,53.5127256 C1.18994361,54.4489662 2.28704887,54.9859398 3.5712782,54.9859398 L46.4528759,54.9859398 C47.7368985,54.9859398 48.8342105,54.4489662 49.4629887,53.5127256 C50.0915602,52.5766917 50.1736466,51.3578008 49.6877444,50.1693045 Z M25.0119737,3.10150376 C35.218609,3.10150376 43.5221617,11.4052632 43.5221617,21.6116917 C43.5221617,31.8181203 35.2184023,40.1218797 25.0119737,40.1218797 C14.8055451,40.1218797 6.50157895,31.8181203 6.50157895,21.6116917 C6.50157895,11.4052632 14.8053383,3.10150376 25.0119737,3.10150376 Z M46.8879135,51.7837406 C46.8767481,51.800282 46.756203,51.8846429 46.4526692,51.8846429 L3.57107143,51.8846429 C3.26753759,51.8846429 3.14699248,51.800282 3.13582707,51.7837406 C3.12466165,51.7669925 3.09199248,51.6234962 3.20695489,51.3425 L7.3412594,41.2270489 C7.70827068,40.3292669 8.92571429,39.5115038 9.89565789,39.5115038 L12.9138346,39.5115038 C16.3680827,41.8537594 20.5329887,43.2233835 25.0117669,43.2233835 C29.4905451,43.2233835 33.6552444,41.8537594 37.1096992,39.5115038 L40.1280827,39.5115038 C41.0980263,39.5115038 42.3156767,40.3292669 42.682688,41.2270489 L46.8169925,51.3425 C46.9315414,51.623703 46.8990789,51.7671992 46.8879135,51.7837406 Z" id="Shape" fill-rule="nonzero"></path>
            </g>
        </g>
    </g>
</svg>