<?xml version="1.0" encoding="UTF-8"?>
<svg width="58px" height="42px" viewBox="0 0 58 42" version="1.1" xmlns="http://www.w3.org/2000/svg" xmlns:xlink="http://www.w3.org/1999/xlink">
    <!-- Generator: Sketch 52.2 (67145) - http://www.bohemiancoding.com/sketch -->
    <title>wifi-connection-signal-symbol</title>
    <desc>Created with Sketch.</desc>
    <g id="Symbols" stroke="none" stroke-width="1" fill="none" fill-rule="evenodd">
        <g id="SOT/-Icn/-Internet-Connection" transform="translate(-3.000000, -11.000000)" fill="#284664" fill-rule="nonzero">
            <g id="wifi-connection-signal-symbol" transform="translate(3.000000, 11.000000)">
                <path d="M28.7806875,31.4783437 C25.8885,31.4783437 23.5412813,33.8255625 23.5412813,36.71775 C23.5412813,39.6099375 25.8885938,41.9571562 28.7806875,41.9571562 C31.6727813,41.9571562 34.0200938,39.6099375 34.0200938,36.71775 C34.0200938,33.8255625 31.6727813,31.4783437 28.7806875,31.4783437 Z M56.853375,13.1595937 C49.8465938,4.8219375 39.6139687,0.0418125 28.7806875,0.0418125 C17.9474063,0.0418125 7.71646875,4.8219375 0.70790625,13.1595937 C-0.22303125,14.266875 -0.07978125,15.9190312 1.02928125,16.849875 C1.51996875,17.262 2.1155625,17.4646875 2.7110625,17.4646875 C3.45853125,17.4646875 4.20084375,17.1467812 4.71946875,16.5302812 C10.7273438,9.38203125 19.498125,5.2813125 28.7805938,5.2813125 C38.0630625,5.2813125 46.8338438,9.38203125 52.841625,16.5285937 C53.3603438,17.1450937 54.1025625,17.463 54.850125,17.463 C55.4457187,17.463 56.043,17.2620937 56.5336875,16.8481875 C57.6409687,15.9189375 57.7843125,14.2650937 56.853375,13.1595937 Z M28.7806875,10.520625 C21.0420938,10.520625 13.7348438,13.9349063 8.72953125,19.8886875 C7.7986875,20.9959688 7.94184375,22.648125 9.05090625,23.5789688 C9.54159375,23.9910938 10.138875,24.1937813 10.7344688,24.1937813 C11.4819375,24.1937813 12.22425,23.875875 12.7411875,23.259375 C16.7458125,18.4933125 22.593,15.7600313 28.7807813,15.7600313 C34.9685625,15.7600313 40.8156563,18.4933125 44.8220625,23.259375 C45.3407813,23.8776563 46.083,24.1937813 46.8286875,24.1937813 C47.4242812,24.1937813 48.0215625,23.992875 48.5123437,23.5789688 C49.6213125,22.648125 49.7644687,20.9942813 48.8337187,19.8886875 C43.8265313,13.935 36.5192812,10.520625 28.7806875,10.520625 Z M28.7806875,20.9994375 C24.1350938,20.9994375 19.7496563,23.0480625 16.7492813,26.6195625 C15.8183438,27.7268437 15.9615938,29.379 17.0706563,30.3098437 C17.5613438,30.7219687 18.158625,30.9245625 18.7542188,30.9245625 C19.5016875,30.9245625 20.244,30.60675 20.7609375,29.99025 C22.7641875,27.6062813 25.6876875,26.23875 28.7806875,26.23875 C31.8736875,26.23875 34.7972813,27.6062812 36.8004375,29.99025 C37.3191563,30.6085313 38.061375,30.9245625 38.8071563,30.9245625 C39.40275,30.9245625 40.0000313,30.72375 40.4907188,30.3098437 C41.5997813,29.3789062 41.7429375,27.72675 40.8120938,26.6195625 C37.811625,23.0480625 33.4261875,20.9994375 28.7806875,20.9994375 Z" id="Shape"></path>
            </g>
        </g>
    </g>
</svg>