<svg xmlns="http://www.w3.org/2000/svg" xmlns:xlink="http://www.w3.org/1999/xlink" width="19" height="19" viewBox="0 0 19 19">
    <defs>
        <path id="a" d="M13.896 7.667a1.437 1.437 0 1 1 0 2.875 1.437 1.437 0 0 1 0-2.875zm0 4.791a1.437 1.437 0 1 1 0 2.875 1.437 1.437 0 0 1 0-2.875zM9.104 7.667a1.438 1.438 0 1 1 0 2.875 1.438 1.438 0 0 1 0-2.875zm0 4.791a1.438 1.438 0 1 1 0 2.875 1.438 1.438 0 0 1 0-2.875zM4.297 7.667a1.437 1.437 0 1 1 0 2.875 1.437 1.437 0 0 1 0-2.875zm0 4.791a1.438 1.438 0 1 1 0 2.875 1.438 1.438 0 0 1 0-2.875zM13.896 0c.427 0 .719.454.719.719v2.396c0 .264-.214.718-.72.718-.542 0-.718-.454-.718-.718V.719c0-.265.176-.719.719-.719zm-9.6 0c.568 0 .72.454.72.719v2.444c0 .264-.283.67-.72.67a.708.708 0 0 1-.718-.67V.719c0-.265.159-.719.719-.719zm12.475 1.438c.794 0 1.437.643 1.437 1.437v13.896c0 .794-.643 1.437-1.437 1.437H1.437A1.437 1.437 0 0 1 0 16.771V2.875c0-.794.644-1.438 1.438-1.438h1.277v1.678c0 .74.55 1.58 1.582 1.58 1.012 0 1.58-.84 1.58-1.58V1.437h6.438v1.678c0 .74.514 1.58 1.629 1.58.982 0 1.533-.84 1.533-1.58V1.437h1.294zm0 14.854V5.953a.192.192 0 0 0-.192-.192H1.63a.192.192 0 0 0-.192.192v10.339c0 .264.215.479.48.479h14.375a.48.48 0 0 0 .479-.48z"/>
    </defs>
    <use fill="#FAAA5A" fill-rule="nonzero" transform="translate(.396 .396)" xlink:href="#a"/>
</svg>
